<svg xmlns="http://www.w3.org/2000/svg" xmlns:xlink="http://www.w3.org/1999/xlink" width="400" height="400" viewBox="0 0 400 400">
  <defs>
    <clipPath id="clip-Artboard_4">
      <rect width="400" height="400"/>
    </clipPath>
  </defs>
  <g id="Artboard_4" data-name="Artboard – 4" clip-path="url(#clip-Artboard_4)">
    <path id="Union_29" data-name="Union 29" d="M-1312.391,487.261a17.881,17.881,0,0,1-12.728-5.272,17.883,17.883,0,0,1-5.272-12.728v-171.6a17.887,17.887,0,0,1,5.272-12.729,17.883,17.883,0,0,1,12.728-5.271h328.453a17.884,17.884,0,0,1,12.728,5.271,17.886,17.886,0,0,1,5.272,12.729v171.6a17.883,17.883,0,0,1-5.272,12.728,17.883,17.883,0,0,1-12.728,5.272Zm21.213-159.92v129.54a20.022,20.022,0,0,0,20,20h56.88a20.022,20.022,0,0,0,20-20V327.341a20.023,20.023,0,0,0-20-20h-56.88A20.023,20.023,0,0,0-1291.178,327.341Zm143.013,4.073v61.421a16.017,16.017,0,0,0,16,16h123.7a16.017,16.017,0,0,0,16-16V331.414a16.018,16.018,0,0,0-16-16h-123.7A16.018,16.018,0,0,0-1148.165,331.414Zm-76.118,83.187a5.767,5.767,0,0,1-5.767-5.767,5.767,5.767,0,0,1,5.767-5.766h17.3a5.766,5.766,0,0,1,5.766,5.766,5.766,5.766,0,0,1-5.766,5.767ZM-1092,403.068a8.877,8.877,0,0,1-8.877-8.877,2.959,2.959,0,0,1,2.959-2.958h58.669a2.959,2.959,0,0,1,2.958,2.958,8.876,8.876,0,0,1-8.876,8.877Zm-167.183-5.766a17,17,0,0,1-17-17V342.795a17,17,0,0,1,17-17h31.74a17,17,0,0,1,17,17V380.3a17,17,0,0,1-17,17Zm164.723-7.815a4.075,4.075,0,0,1-4.074-4.074,4.074,4.074,0,0,1,4.074-4.074h51.95a4.073,4.073,0,0,1,4.074,4.074,4.074,4.074,0,0,1-4.074,4.074Zm3.285-9.9a9.7,9.7,0,0,1-9.7-9.517c0-.03,0-.059,0-.087v-.1h0c.2-4.617,14.58-8.343,32.292-8.343s32.093,3.726,32.291,8.343h0v.1c0,.029,0,.059,0,.087a9.7,9.7,0,0,1-9.7,9.517Zm.679-146.063a28.833,28.833,0,0,1-28.832,28.833,28.833,28.833,0,0,1-28.833-28.833A28.834,28.834,0,0,1-1177,262.362a28.834,28.834,0,0,1-28.833-28.833,28.833,28.833,0,0,1-28.833,28.833,28.833,28.833,0,0,1-28.832-28.833,28.834,28.834,0,0,1-28.834,28.833,28.834,28.834,0,0,1-28.833-28.833h-14.98a13,13,0,0,1-10-21.3l19.8-23.841a25.114,25.114,0,0,1,3.692-4.445l2.45-2.951a13,13,0,0,1,14.308-3.966c.169,0,.34-.005.51-.005h316.13a13.015,13.015,0,0,1,13.078,2.692,25.065,25.065,0,0,1,12.625,15.02l14.529,17.5a13,13,0,0,1-10,21.3h-16.134A28.833,28.833,0,0,1-1004,262.361a28.833,28.833,0,0,1-28.833-28.833h0a28.834,28.834,0,0,1-28.834,28.833A28.834,28.834,0,0,1-1090.5,233.528Z" transform="translate(1347 -131.776)" fill="#fff"/>
  </g>
</svg>
