<svg xmlns="http://www.w3.org/2000/svg" xmlns:xlink="http://www.w3.org/1999/xlink" width="400" height="400" viewBox="0 0 400 400">
  <defs>
    <clipPath id="clip-Artboard_3">
      <rect width="400" height="400"/>
    </clipPath>
  </defs>
  <g id="Artboard_3" data-name="Artboard – 3" clip-path="url(#clip-Artboard_3)">
    <path id="Union_23" data-name="Union 23" d="M-858,577a19,19,0,0,1-19-19V537a19,19,0,0,1,19-19h31.8a16.435,16.435,0,0,1-1.8-7.5V433.1a16.608,16.608,0,0,1,8.156-21.8l75.441-35.179-75.441-35.178A16.611,16.611,0,0,1-828,319.129V240.5a16.493,16.493,0,0,1,.621-4.5H-858a19,19,0,0,1-19-19V196a19,19,0,0,1,19-19h302a19,19,0,0,1,19,19v21a19,19,0,0,1-19,19h-26.622a16.493,16.493,0,0,1,.622,4.5v79c0,.031,0,.061,0,.092a16.612,16.612,0,0,1-8.354,21.344L-665.8,376.114l75.442,35.179A16.61,16.61,0,0,1-582,432.634V510.5a16.425,16.425,0,0,1-1.8,7.5H-556a19,19,0,0,1,19,19v21a19,19,0,0,1-19,19Zm63-140.638V510.5a16.424,16.424,0,0,1-1.8,7.5h183.6a16.435,16.435,0,0,1-1.8-7.5V436.455l-90.1-42.014Zm0-195.863v75.365l89.9,41.921,90.1-42.015V240.5a16.493,16.493,0,0,1,.621-4.5H-795.622A16.491,16.491,0,0,1-795,240.5Zm32.035,272.227-26.7-18.7a6.2,6.2,0,0,1-1.523-8.635,2.066,2.066,0,0,1,2.878-.508l33.476,23.441a2.067,2.067,0,0,1,.508,2.877,6.2,6.2,0,0,1-5.085,2.645A6.169,6.169,0,0,1-762.964,512.727ZM-662.3,512a6.2,6.2,0,0,1-6.2-6.2,2.066,2.066,0,0,1,2.066-2.066h40.867A2.066,2.066,0,0,1-623.5,505.8a6.2,6.2,0,0,1-6.2,6.2Zm-72.752,0a6.2,6.2,0,0,1-6.2-6.2,2.066,2.066,0,0,1,2.066-2.066h40.867a2.066,2.066,0,0,1,2.066,2.066,6.2,6.2,0,0,1-6.2,6.2ZM-756,506.022l-29.639-20.753a2.844,2.844,0,0,1-.7-3.963,2.845,2.845,0,0,1,3.964-.7l29.638,20.753a2.846,2.846,0,0,1,.7,3.964,2.844,2.844,0,0,1-2.334,1.213A2.831,2.831,0,0,1-756,506.022Zm91.978-3.509a2.846,2.846,0,0,1-2.846-2.846,2.846,2.846,0,0,1,2.846-2.846h36.182A2.846,2.846,0,0,1-625,499.667a2.846,2.846,0,0,1-2.846,2.846Zm-72.752,0a2.846,2.846,0,0,1-2.846-2.846,2.846,2.846,0,0,1,2.846-2.846h36.182a2.846,2.846,0,0,1,2.846,2.846,2.846,2.846,0,0,1-2.846,2.846Zm-17.256-3.548-25.763-18.04a6.774,6.774,0,0,1-1.737-9.328c.011-.018.023-.035.035-.052l.012-.017.027-.039h0c1.964-2.561,11.664,1.055,21.771,8.132s16.823,14.956,15.088,17.678h0l-.027.039-.013.017-.036.05a6.771,6.771,0,0,1-5.482,2.784A6.744,6.744,0,0,1-754.031,498.965Zm92.306-3.363a6.776,6.776,0,0,1-6.774-6.646c0-.021,0-.041,0-.062v-.068h0c.14-3.225,10.159-5.827,22.5-5.827s22.359,2.6,22.5,5.827h0v.068c0,.021,0,.041,0,.062a6.777,6.777,0,0,1-6.774,6.646Zm-72.752,0a6.776,6.776,0,0,1-6.774-6.646c0-.021,0-.041,0-.062v-.068h0c.139-3.225,10.159-5.827,22.5-5.827s22.359,2.6,22.5,5.827h0v.068c0,.021,0,.041,0,.062a6.777,6.777,0,0,1-6.774,6.646Zm46.406-10.448a2.066,2.066,0,0,1,.757-2.822l35.392-20.434a2.067,2.067,0,0,1,2.823.756,6.2,6.2,0,0,1-2.269,8.47l-28.233,16.3a6.17,6.17,0,0,1-3.094.832A6.2,6.2,0,0,1-688.072,485.154Zm-44.763-4.775L-762.381,466.6a6.2,6.2,0,0,1-3-8.24,2.067,2.067,0,0,1,2.746-1l37.039,17.272a2.066,2.066,0,0,1,1,2.746,6.2,6.2,0,0,1-5.623,3.581A6.175,6.175,0,0,1-732.835,480.38Zm43.111-1.351a2.846,2.846,0,0,1,1.041-3.888l31.334-18.091a2.847,2.847,0,0,1,3.888,1.042,2.846,2.846,0,0,1-1.042,3.887l-31.334,18.091a2.833,2.833,0,0,1-1.421.382A2.844,2.844,0,0,1-689.724,479.029Zm-6.768-8.461c-.011-.017-.022-.035-.031-.053l-.011-.019c-.008-.013-.016-.027-.023-.04h0c-1.492-2.862,5.884-10.126,16.571-16.3s20.664-8.925,22.4-6.2h0l.023.04.011.019c.011.018.02.036.031.054a6.776,6.776,0,0,1-2.544,9.142L-687.3,472.936a6.745,6.745,0,0,1-3.382.909A6.773,6.773,0,0,1-696.492,470.568Zm-30.65,2-32.792-15.291a2.846,2.846,0,0,1-1.377-3.783,2.846,2.846,0,0,1,3.782-1.376l32.792,15.291a2.846,2.846,0,0,1,1.376,3.782,2.847,2.847,0,0,1-2.581,1.644A2.833,2.833,0,0,1-727.142,472.568Zm.715-7.293-28.5-13.291a6.776,6.776,0,0,1-3.332-8.886c.008-.02.017-.038.026-.057l.009-.02c.007-.014.013-.029.02-.042h0c1.489-2.864,11.669-.987,22.853,4.227s19.164,11.807,17.927,14.789h0c-.006.013-.013.028-.02.042s-.006.013-.009.02l-.027.056a6.779,6.779,0,0,1-6.089,3.8A6.75,6.75,0,0,1-726.427,465.276Zm31.419-13.7-31.49-8.437a6.2,6.2,0,0,1-4.384-7.593,2.066,2.066,0,0,1,2.531-1.462l39.475,10.578a2.065,2.065,0,0,1,1.461,2.531,6.2,6.2,0,0,1-5.984,4.6A6.2,6.2,0,0,1-695.008,451.574Zm4.251-8.681-34.949-9.365a2.845,2.845,0,0,1-2.012-3.486,2.846,2.846,0,0,1,3.485-2.012l34.949,9.365a2.845,2.845,0,0,1,2.012,3.485,2.847,2.847,0,0,1-2.747,2.11A2.845,2.845,0,0,1-690.757,442.893Zm-.563-7.305-30.378-8.141a6.775,6.775,0,0,1-4.823-8.172c0-.021.01-.04.014-.06a.178.178,0,0,0,.006-.021c0-.016.008-.031.012-.045h0c.969-3.079,11.321-3,23.24.2s20.923,8.3,20.224,11.451h0l-.012.045-.005.021c-.005.02-.012.04-.017.059a6.781,6.781,0,0,1-6.507,4.9A6.783,6.783,0,0,1-691.321,435.587ZM-751.111,328A16.889,16.889,0,0,1-768,311.11a5.63,5.63,0,0,1,5.63-5.629H-651.63A5.63,5.63,0,0,1-646,311.11,16.889,16.889,0,0,1-662.89,328Zm-4.714-25.841a7.752,7.752,0,0,1-7.753-7.752,7.752,7.752,0,0,1,7.753-7.753h98.018a7.752,7.752,0,0,1,7.753,7.753,7.752,7.752,0,0,1-7.753,7.752ZM-758,283.331a10,10,0,0,1-10-10v-8.457h0C-767.62,256.09-740.456,249-707,249s60.62,7.09,61,15.874h0v8.457a10,10,0,0,1-10,10Z" transform="translate(907 -177)" fill="#fff"/>
  </g>
</svg>
