<svg xmlns="http://www.w3.org/2000/svg" xmlns:xlink="http://www.w3.org/1999/xlink" width="400" height="400" viewBox="0 0 400 400">
  <defs>
    <clipPath id="clip-Artboard_5">
      <rect width="400" height="400"/>
    </clipPath>
  </defs>
  <g id="Artboard_5" data-name="Artboard – 5" clip-path="url(#clip-Artboard_5)">
    <g id="Subtraction_19" data-name="Subtraction 19" transform="translate(1817 -147.841)" fill="#fff">
      <path d="M -1419.848754882813 516.1810913085938 L -1814.151000976563 516.1810913085938 C -1808.377685546875 475.1319885253906 -1785.812255859375 437.2744750976563 -1750.377685546875 409.3177490234375 C -1732.497436523438 395.2097473144531 -1712.0966796875 384.1726989746094 -1689.741943359375 376.5131225585938 C -1666.584350585938 368.5782165527344 -1642.110473632813 364.5549011230469 -1617.000122070313 364.5549011230469 L -1617.000122070313 359.5549011230469 C -1629.143188476563 359.5549011230469 -1640.923583984375 357.1751708984375 -1652.013793945313 352.4818420410156 C -1662.72509765625 347.9470520019531 -1672.345336914063 341.4556579589844 -1680.607055664063 333.1881103515625 C -1688.869140625 324.9194946289063 -1695.356079101563 315.2912902832031 -1699.8876953125 304.5711059570313 C -1704.578125 293.4745483398438 -1706.956298828125 281.6848449707031 -1706.956298828125 269.5296020507813 C -1706.956298828125 257.3730163574219 -1704.578125 245.5826416015625 -1699.8876953125 234.4859619140625 C -1695.35693359375 223.7654418945313 -1688.869995117188 214.1370086669922 -1680.607055664063 205.8681182861328 C -1672.345947265625 197.6002807617188 -1662.725708007813 191.1085357666016 -1652.013427734375 186.5732269287109 C -1640.9248046875 181.8800201416016 -1629.14453125 179.5003356933594 -1617.000122070313 179.5003356933594 C -1604.855712890625 179.5003356933594 -1593.075439453125 181.8800201416016 -1581.986572265625 186.5733337402344 C -1571.275146484375 191.1076507568359 -1561.65478515625 197.5993804931641 -1553.39306640625 205.8680725097656 C -1545.130737304688 214.1352233886719 -1538.643676757813 223.7635955810547 -1534.112182617188 234.4858551025391 C -1529.421997070313 245.5828094482422 -1527.043823242188 257.3731689453125 -1527.043823242188 269.5296020507813 C -1527.043823242188 281.6846313476563 -1529.421997070313 293.4743957519531 -1534.112182617188 304.5712890625 C -1538.642578125 315.2899475097656 -1545.129638671875 324.9181213378906 -1553.392944335938 333.188232421875 C -1561.652587890625 341.4547119140625 -1571.27294921875 347.9460754394531 -1581.98681640625 352.4820251464844 C -1593.075317382813 357.1752319335938 -1604.85546875 359.5549011230469 -1617.000122070313 359.5549011230469 L -1617.000122070313 364.5549011230469 C -1591.88818359375 364.5549011230469 -1567.41357421875 368.5775451660156 -1544.255981445313 376.5111083984375 C -1521.9013671875 384.1700744628906 -1501.500244140625 395.2064208984375 -1483.619384765625 409.3136596679688 C -1448.182861328125 437.2704162597656 -1425.618408203125 475.1296691894531 -1419.848754882813 516.1810913085938 Z M -1664.041381835938 271.2086486816406 L -1664.041381835938 273.7086486816406 C -1664.041381835938 280.0564880371094 -1662.797241210938 286.21728515625 -1660.343505859375 292.0198669433594 C -1657.971435546875 297.6244201660156 -1654.579956054688 302.6546936035156 -1650.26318359375 306.9715881347656 C -1645.941528320313 311.2920227050781 -1640.910766601563 314.6835021972656 -1635.310302734375 317.0520629882813 C -1629.5087890625 319.5059204101563 -1623.348388671875 320.7501220703125 -1617.000122070313 320.7501220703125 C -1610.651000976563 320.7501220703125 -1604.490112304688 319.5059204101563 -1598.6884765625 317.0520629882813 C -1593.084716796875 314.6814270019531 -1588.054321289063 311.2898559570313 -1583.736938476563 306.971435546875 C -1579.417602539063 302.6520690917969 -1576.026000976563 297.6216430664063 -1573.65673828125 292.0200805664063 C -1571.202758789063 286.2174377441406 -1569.95849609375 280.056640625 -1569.95849609375 273.7086486816406 L -1569.95849609375 271.2086486816406 L -1572.45849609375 271.2086486816406 L -1661.541381835938 271.2086486816406 L -1664.041381835938 271.2086486816406 Z M -1652.632080078125 216.6465911865234 C -1657.761840820313 216.6465911865234 -1662.584106445313 218.6438598632813 -1666.210571289063 222.2704315185547 C -1669.837768554688 225.897705078125 -1671.835327148438 230.7199096679688 -1671.835327148438 235.8487548828125 C -1671.835327148438 237.1363372802734 -1671.707153320313 238.4260101318359 -1671.45458984375 239.6819610595703 L -1666.553833007813 239.6871643066406 C -1665.215209960938 233.1046447753906 -1659.360229492188 228.3270111083984 -1652.632080078125 228.3270111083984 C -1645.90673828125 228.3270111083984 -1640.052734375 233.1028594970703 -1638.71240234375 239.6829071044922 L -1633.812255859375 239.6792755126953 C -1633.55859375 238.4246978759766 -1633.430053710938 237.1359100341797 -1633.430053710938 235.8487548828125 C -1633.430053710938 230.7190093994141 -1635.42724609375 225.8967437744141 -1639.053833007813 222.2703857421875 C -1642.68017578125 218.6438598632813 -1647.50244140625 216.6465911865234 -1652.632080078125 216.6465911865234 Z M -1579.140014648438 216.6465911865234 C -1584.269775390625 216.6465911865234 -1589.092041015625 218.6438598632813 -1592.718383789063 222.2704925537109 C -1596.345581054688 225.8976440429688 -1598.343139648438 230.7198486328125 -1598.343139648438 235.8487548828125 C -1598.343139648438 237.1340179443359 -1598.214721679688 238.4238586425781 -1597.961303710938 239.6823883056641 L -1593.060546875 239.6868591308594 C -1591.722900390625 233.1045379638672 -1585.868408203125 228.3270111083984 -1579.140014648438 228.3270111083984 C -1572.413818359375 228.3270111083984 -1566.559692382813 233.1026916503906 -1565.220336914063 239.6825866699219 L -1560.3203125 239.6797027587891 C -1560.066528320313 238.4254913330078 -1559.937866210938 237.1365356445313 -1559.937866210938 235.8487548828125 C -1559.937866210938 230.7192230224609 -1561.93505859375 225.8970184326172 -1565.561645507813 222.2703857421875 C -1569.188110351563 218.6438598632813 -1574.010375976563 216.6465911865234 -1579.140014648438 216.6465911865234 Z" stroke="none"/>
      <path d="M -1422.7529296875 513.6810913085938 C -1429.056762695313 474.3667907714844 -1451.061157226563 438.1840209960938 -1485.167846679688 411.2763671875 C -1502.82666015625 397.3444213867188 -1522.979370117188 386.443359375 -1545.066162109375 378.8761901855469 C -1567.96240234375 371.0321960449219 -1592.16455078125 367.054931640625 -1617.000122070313 367.054931640625 L -1617.000122070313 357.054931640625 C -1605.192138671875 357.054931640625 -1593.73974609375 354.7417602539063 -1582.96142578125 350.1798095703125 C -1572.545654296875 345.77001953125 -1563.1923828125 339.4587097167969 -1555.161499023438 331.4212646484375 C -1547.126708984375 323.3798217773438 -1540.819458007813 314.0187072753906 -1536.414916992188 303.5979309082031 C -1531.855590820313 292.8108520507813 -1529.543823242188 281.3486022949219 -1529.543823242188 269.5296020507813 C -1529.543823242188 257.7093200683594 -1531.855590820313 246.2463684082031 -1536.4150390625 235.4590911865234 C -1540.820556640625 225.0348663330078 -1547.127563476563 215.6736450195313 -1555.161499023438 207.6350860595703 C -1563.194580078125 199.5953063964844 -1572.547729492188 193.28369140625 -1582.9609375 188.8756408691406 C -1593.739868164063 184.3135375976563 -1605.192260742188 182.0003051757813 -1617.000122070313 182.0003051757813 C -1628.807983398438 182.0003051757813 -1640.260375976563 184.3135375976563 -1651.038696289063 188.8754272460938 C -1661.453002929688 193.2845306396484 -1670.806274414063 199.59619140625 -1678.838745117188 207.6353149414063 C -1686.873046875 215.6754150390625 -1693.18017578125 225.0366973876953 -1697.5849609375 235.4593048095703 C -1702.144409179688 246.2463073730469 -1704.456298828125 257.7091979980469 -1704.456298828125 269.5296020507813 C -1704.456298828125 281.3486938476563 -1702.144409179688 292.8109130859375 -1697.5849609375 303.5976867675781 C -1693.17919921875 314.02001953125 -1686.871948242188 323.3811950683594 -1678.838745117188 331.4209899902344 C -1670.8056640625 339.4596862792969 -1661.452392578125 345.7710266113281 -1651.039428710938 350.1795349121094 C -1640.259155273438 354.74169921875 -1628.806762695313 357.054931640625 -1617.000122070313 357.054931640625 L -1617.000122070313 367.054931640625 C -1641.834106445313 367.054931640625 -1666.035400390625 371.0328063964844 -1688.931518554688 378.8781433105469 C -1711.0185546875 386.4459838867188 -1731.1708984375 397.34765625 -1748.829223632813 411.2804260253906 C -1782.931884765625 438.186279296875 -1804.937622070313 474.3717956542969 -1811.24658203125 513.6810913085938 L -1422.7529296875 513.6810913085938 M -1666.541381835938 268.7086486816406 L -1661.541381835938 268.7086486816406 L -1572.45849609375 268.7086486816406 L -1567.45849609375 268.7086486816406 L -1567.45849609375 273.7086486816406 C -1567.45849609375 280.3931274414063 -1568.769165039063 286.881591796875 -1571.354248046875 292.9939880371094 C -1573.849609375 298.8935241699219 -1577.421020507813 304.1910400390625 -1581.968994140625 308.7389831542969 C -1586.515014648438 313.2861938476563 -1591.8125 316.8577575683594 -1597.714599609375 319.3545227050781 C -1603.826049804688 321.9394226074219 -1610.314575195313 323.2500915527344 -1617.000122070313 323.2500915527344 C -1623.684814453125 323.2500915527344 -1630.1728515625 321.9394226074219 -1636.2841796875 319.3546447753906 C -1642.182495117188 316.8600463867188 -1647.480346679688 313.2886962890625 -1652.030883789063 308.7393798828125 C -1656.576416015625 304.1938171386719 -1660.147705078125 298.8966369628906 -1662.64599609375 292.9935913085938 C -1665.230834960938 286.8811950683594 -1666.541381835938 280.392822265625 -1666.541381835938 273.7086486816406 L -1666.541381835938 268.7086486816406 M -1652.632080078125 214.1465911865234 C -1646.834594726563 214.1465911865234 -1641.384643554688 216.4038696289063 -1637.2861328125 220.5025329589844 C -1633.187377929688 224.6011352539063 -1630.930053710938 230.0511932373047 -1630.930053710938 235.8487548828125 C -1630.930053710938 237.3019714355469 -1631.075317382813 238.7574157714844 -1631.36181640625 240.1745910644531 L -1641.162109375 240.1819152832031 C -1642.266235351563 234.7613677978516 -1647.090087890625 230.8270263671875 -1652.632080078125 230.8270263671875 C -1658.176635742188 230.8270263671875 -1663.001220703125 234.7627563476563 -1664.10400390625 240.185302734375 L -1673.905517578125 240.1749267578125 C -1674.190673828125 238.7569274902344 -1674.335327148438 237.3013610839844 -1674.335327148438 235.8487548828125 C -1674.335327148438 230.0521392822266 -1672.07763671875 224.6021423339844 -1667.978393554688 220.5027008056641 C -1663.879638671875 216.4038696289063 -1658.429565429688 214.1465911865234 -1652.632080078125 214.1465911865234 M -1579.140014648438 214.1465911865234 C -1573.342651367188 214.1465911865234 -1567.892578125 216.4038696289063 -1563.7939453125 220.5026397705078 C -1559.695190429688 224.6014251708984 -1557.437866210938 230.0514831542969 -1557.437866210938 235.8487548828125 C -1557.437866210938 237.3025360107422 -1557.583251953125 238.7581939697266 -1557.869873046875 240.1752471923828 L -1567.670166015625 240.1812591552734 C -1568.7734375 234.7610321044922 -1573.59716796875 230.8270263671875 -1579.140014648438 230.8270263671875 C -1584.6845703125 230.8270263671875 -1589.508666992188 234.7625274658203 -1590.610717773438 240.1846923828125 L -1600.412109375 240.1757507324219 C -1600.698120117188 238.75537109375 -1600.843139648438 237.2995300292969 -1600.843139648438 235.8487548828125 C -1600.843139648438 230.0520324707031 -1598.58544921875 224.6019744873047 -1594.486206054688 220.5027465820313 C -1590.3876953125 216.4039154052734 -1584.937622070313 214.1465911865234 -1579.140014648438 214.1465911865234 M -1417 518.6810913085938 L -1817 518.6810913085938 C -1811.797729492188 475.8939819335938 -1788.68701171875 436.3580932617188 -1751.926147460938 407.3550415039063 C -1733.823974609375 393.0719299316406 -1713.1748046875 381.8994140625 -1690.55224609375 374.1481018066406 C -1667.13330078125 366.1236572265625 -1642.386840820313 362.054931640625 -1617.000122070313 362.054931640625 C -1629.481567382813 362.054931640625 -1641.589599609375 359.6079711914063 -1652.988037109375 354.7841491699219 C -1663.99755859375 350.1231384277344 -1673.885009765625 343.4516906738281 -1682.37548828125 334.955322265625 C -1690.866088867188 326.4577941894531 -1697.532836914063 316.5625915527344 -1702.1904296875 305.5445251464844 C -1707.01171875 294.13818359375 -1709.456298828125 282.0210876464844 -1709.456298828125 269.5296020507813 C -1709.456298828125 257.0369262695313 -1707.01171875 244.9190368652344 -1702.1904296875 233.5126495361328 C -1697.533813476563 222.4942016601563 -1690.867065429688 212.5986938476563 -1682.37548828125 204.1010284423828 C -1673.8857421875 195.604248046875 -1663.998291015625 188.9324798583984 -1652.988037109375 184.2710876464844 C -1641.589233398438 179.446533203125 -1629.481201171875 177.0003051757813 -1617.000122070313 177.0003051757813 C -1604.51904296875 177.0003051757813 -1592.411010742188 179.446533203125 -1581.012084960938 184.2710876464844 C -1570.002563476563 188.9315795898438 -1560.115112304688 195.6033630371094 -1551.62451171875 204.1010284423828 C -1543.133666992188 212.5968017578125 -1536.466918945313 222.4923095703125 -1531.809448242188 233.5126495361328 C -1526.988403320313 244.9189758300781 -1524.543823242188 257.036865234375 -1524.543823242188 269.5296020507813 C -1524.543823242188 282.0210876464844 -1526.988403320313 294.1382446289063 -1531.809448242188 305.5445251464844 C -1536.465698242188 316.56103515625 -1543.13232421875 326.4561462402344 -1551.62451171875 334.955322265625 C -1560.112915039063 343.45068359375 -1570.000366210938 350.1221008300781 -1581.012084960938 354.7841491699219 C -1592.411010742188 359.6087646484375 -1604.51904296875 362.054931640625 -1617.000122070313 362.054931640625 C -1591.60986328125 362.054931640625 -1566.862548828125 366.1236877441406 -1543.445678710938 374.1460876464844 C -1520.823486328125 381.8966979980469 -1500.173950195313 393.0684814453125 -1482.070922851563 407.3509826660156 C -1445.307495117188 436.3545227050781 -1422.1982421875 475.8923645019531 -1417 518.6810913085938 Z M -1661.541381835938 273.7086486816406 C -1661.541381835938 279.7198181152344 -1660.36376953125 285.5530395507813 -1658.040893554688 291.0462036132813 C -1655.795288085938 296.3519897460938 -1652.583862304688 301.1152954101563 -1648.495361328125 305.203857421875 C -1644.402587890625 309.2955322265625 -1639.638671875 312.5071411132813 -1634.336547851563 314.7495422363281 C -1628.8447265625 317.0723571777344 -1623.01171875 318.2500915527344 -1617.000122070313 318.2500915527344 C -1610.987548828125 318.2500915527344 -1605.154174804688 317.0723571777344 -1599.662353515625 314.7495422363281 C -1594.356811523438 312.5050964355469 -1589.593505859375 309.2934875488281 -1585.5048828125 305.203857421875 C -1581.414428710938 301.1134338378906 -1578.20263671875 296.35009765625 -1575.959228515625 291.0462036132813 C -1573.636352539063 285.5536499023438 -1572.45849609375 279.7204284667969 -1572.45849609375 273.7086486816406 L -1661.541381835938 273.7086486816406 Z M -1579.140014648438 219.1465911865234 C -1583.601928710938 219.1465911865234 -1587.79638671875 220.8837585449219 -1590.950561523438 224.0381469726563 C -1594.105590820313 227.1931915283203 -1595.843139648438 231.3875885009766 -1595.843139648438 235.8487548828125 C -1595.843139648438 236.9688110351563 -1595.731201171875 238.0925903320313 -1595.510498046875 239.1889190673828 C -1593.93701171875 231.446533203125 -1587.051391601563 225.8270263671875 -1579.140014648438 225.8270263671875 C -1571.23046875 225.8270263671875 -1564.346069335938 231.4444274902344 -1562.770629882813 239.1839141845703 C -1562.550537109375 238.0960388183594 -1562.437866210938 236.9739685058594 -1562.437866210938 235.8487548828125 C -1562.437866210938 231.3869781494141 -1564.175048828125 227.1925811767578 -1567.329467773438 224.0381469726563 C -1570.483764648438 220.8837585449219 -1574.67822265625 219.1465911865234 -1579.140014648438 219.1465911865234 Z M -1652.632080078125 219.1465911865234 C -1657.093872070313 219.1465911865234 -1661.288452148438 220.8837585449219 -1664.442749023438 224.0381469726563 C -1667.59765625 227.1931457519531 -1669.335327148438 231.3875885009766 -1669.335327148438 235.8487548828125 C -1669.335327148438 236.9716491699219 -1669.2236328125 238.0954742431641 -1669.003662109375 239.1889190673828 C -1667.42919921875 231.446533203125 -1660.543090820313 225.8270263671875 -1652.632080078125 225.8270263671875 C -1644.7236328125 225.8270263671875 -1637.839233398438 231.4444274902344 -1636.2626953125 239.1839141845703 C -1636.042724609375 238.0958709716797 -1635.930053710938 236.9738159179688 -1635.930053710938 235.8487548828125 C -1635.930053710938 231.3868713378906 -1637.667114257813 227.1924743652344 -1640.821533203125 224.0381469726563 C -1643.975830078125 220.8837585449219 -1648.17041015625 219.1465911865234 -1652.632080078125 219.1465911865234 Z" stroke="none" fill="#fff"/>
    </g>
  </g>
</svg>
