<svg xmlns="http://www.w3.org/2000/svg" xmlns:xlink="http://www.w3.org/1999/xlink" width="400" height="400" viewBox="0 0 400 400">
  <defs>
    <clipPath id="clip-Artboard_2">
      <rect width="400" height="400"/>
    </clipPath>
  </defs>
  <g id="Artboard_2" data-name="Artboard – 2" clip-path="url(#clip-Artboard_2)">
    <g id="Union_36" data-name="Union 36" transform="translate(407 -80.169)" fill="#fff">
      <path d="M -108.5427169799805 380.8379211425781 C -114.7896118164063 380.8253479003906 -121.0309295654297 380.1904602050781 -127.0940856933594 378.950927734375 C -133.0557708740234 377.7326049804688 -138.9240875244141 375.9124450683594 -144.5361328125 373.540771484375 C -150.0402374267578 371.2149047851563 -155.3515014648438 368.3344421386719 -160.3224029541016 364.9793395996094 C -160.32470703125 364.977783203125 -160.3269805908203 364.9762573242188 -160.3292846679688 364.9747009277344 L -149.8986663818359 358.9567260742188 C -149.8517456054688 358.9839477539063 -149.804443359375 359.0113830566406 -149.7566680908203 359.0390319824219 C -137.3269195556641 366.209228515625 -123.1613464355469 369.998291015625 -108.7883987426758 369.998291015625 C -108.7067794799805 369.998291015625 -108.6254501342773 369.9981994628906 -108.5438461303711 369.9979553222656 C -108.4628219604492 369.9981994628906 -108.3797073364258 369.998291015625 -108.2988204956055 369.998291015625 C -93.92618560791016 369.998291015625 -79.76029205322266 366.209228515625 -67.33266448974609 359.0408020019531 C -67.28409576416016 359.0126953125 -67.23590087890625 358.9847717285156 -67.18804168701172 358.9569702148438 L -56.75715255737305 364.9747619628906 C -56.75899124145508 364.9760131835938 -56.76076889038086 364.9772033691406 -56.76261138916016 364.9784545898438 C -61.73245239257813 368.33349609375 -67.04366302490234 371.2139282226563 -72.55008697509766 373.540771484375 C -78.16223907470703 375.9124450683594 -84.03050231933594 377.732666015625 -89.99203491210938 378.9508666992188 C -96.05538940429688 380.1904602050781 -102.2964019775391 380.8253479003906 -108.5427169799805 380.8379211425781 Z M -10.03263854980469 345.747802734375 L -63.97168350219727 345.747802734375 C -62.74003982543945 341.1067504882813 -59.88608169555664 336.8652954101563 -55.73839950561523 333.5870361328125 C -53.24297714233398 331.6147155761719 -50.3889274597168 330.0699157714844 -47.25545120239258 328.9955444335938 C -43.99597930908203 327.8777160644531 -40.54645156860352 327.3109130859375 -37.00260925292969 327.3109130859375 L -37.00260925292969 322.3109130859375 C -38.53934860229492 322.3109130859375 -40.02729415893555 322.0114440917969 -41.42502975463867 321.4208679199219 C -42.77939987182617 320.8495483398438 -43.99471664428711 320.0320129394531 -45.03866195678711 318.9903259277344 C -46.08271408081055 317.9476928710938 -46.90224075317383 316.7352905273438 -47.4737663269043 315.3874816894531 C -48.06534576416016 313.9922485351563 -48.36529541015625 312.5094909667969 -48.36529541015625 310.9805908203125 C -48.36529541015625 309.4511413574219 -48.06534576416016 307.9680786132813 -47.47371673583984 306.5726013183594 C -46.901611328125 305.2242736816406 -46.08224105834961 304.0122375488281 -45.03860855102539 302.9708251953125 C -43.99392700195313 301.9290771484375 -42.77803039550781 301.1109313964844 -41.42539978027344 300.5396118164063 C -40.02729415893555 299.9496154785156 -38.53903198242188 299.6502990722656 -37.00260925292969 299.6502990722656 C -35.46629333496094 299.6502990722656 -33.97755813598633 299.9496459960938 -32.57776641845703 300.5400695800781 C -31.22582054138184 301.1113891601563 -30.00976753234863 301.9296569824219 -28.96503067016602 302.971435546875 C -27.92329406738281 304.0109558105469 -27.10376739501953 305.223388671875 -26.52982139587402 306.5743408203125 C -25.93908309936523 307.969482421875 -25.63897895812988 309.4528503417969 -25.63897895812988 310.9805908203125 C -25.63897895812988 312.5077514648438 -25.93908309936523 313.9908752441406 -26.53097915649414 315.3887023925781 C -27.10313606262207 316.7362365722656 -27.92282104492188 317.948974609375 -28.96634674072266 318.9910278320313 C -30.00897789001465 320.0314331054688 -31.22445297241211 320.8490295410156 -32.57829284667969 321.4204406738281 C -33.97755813598633 322.0113830566406 -35.46597671508789 322.3109130859375 -37.00260925292969 322.3109130859375 L -37.00260925292969 327.3109130859375 C -33.46034622192383 327.3109130859375 -30.01071548461914 327.8777465820313 -26.74955749511719 328.99560546875 C -23.61429405212402 330.0708618164063 -20.76029396057129 331.6156005859375 -18.26713562011719 333.5868225097656 C -14.1187105178833 336.8650817871094 -11.26442623138428 341.1065673828125 -10.03263854980469 345.747802734375 Z M -153.8224487304688 345.747802734375 L -207.7624664306641 345.747802734375 C -206.5301971435547 341.1063537597656 -203.6758270263672 336.8650207519531 -199.5279235839844 333.5871887207031 C -197.0332946777344 331.61474609375 -194.1796569824219 330.070068359375 -191.0457611083984 328.9955444335938 C -187.7854461669922 327.8777160644531 -184.3359222412109 327.3109130859375 -180.7929229736328 327.3109130859375 L -180.7929229736328 322.3109130859375 C -182.3296661376953 322.3109130859375 -183.8176116943359 322.0114440917969 -185.2153472900391 321.4208679199219 C -186.5697174072266 320.8495483398438 -187.7850341796875 320.0320129394531 -188.8289794921875 318.9903259277344 C -189.8732452392578 317.947509765625 -190.6923522949219 316.7354431152344 -191.2627716064453 315.3885498046875 C -191.8548736572266 313.99365234375 -192.1547088623047 312.51123046875 -192.1547088623047 310.9805908203125 C -192.1547088623047 309.4494323730469 -191.8548736572266 307.9667053222656 -191.2635650634766 306.5736694335938 C -190.6917114257813 305.2241821289063 -189.8728179931641 304.0124816894531 -188.8289184570313 302.9708251953125 C -187.7842407226563 301.9290771484375 -186.5683441162109 301.1109313964844 -185.2157135009766 300.5396118164063 C -183.8170318603516 299.9496459960938 -182.32861328125 299.6502990722656 -180.7929229736328 299.6502990722656 C -179.2566070556641 299.6502990722656 -177.7678680419922 299.9496459960938 -176.3680877685547 300.5400695800781 C -175.0148773193359 301.1119689941406 -173.7990264892578 301.9300231933594 -172.7559204101563 302.9708557128906 C -171.7126617431641 304.0111694335938 -170.8935089111328 305.2230224609375 -170.3206176757813 306.5732727050781 C -169.7300262451172 307.9680786132813 -169.4301910400391 309.4515075683594 -169.4301910400391 310.9805908203125 C -169.4301910400391 312.5091857910156 -169.72998046875 313.9922790527344 -170.3212890625 315.3887023925781 C -170.8928680419922 316.7365417480469 -171.7121887207031 317.9487609863281 -172.7560272216797 318.9904479980469 C -173.7982482910156 320.0311279296875 -175.0135040283203 320.8485107421875 -176.3686065673828 321.4204406738281 C -177.7678680419922 322.0113830566406 -179.2563018798828 322.3109130859375 -180.7929229736328 322.3109130859375 L -180.7929229736328 327.3109130859375 C -177.2506103515625 327.3109130859375 -173.8009796142578 327.8777160644531 -170.5398712158203 328.99560546875 C -167.4051361083984 330.0704040527344 -164.5511322021484 331.6151428222656 -162.0574035644531 333.5868225097656 C -157.9091491699219 336.8650207519531 -155.0547180175781 341.1063537597656 -153.8224487304688 345.747802734375 Z M -350.0269165039063 310.988037109375 L -403.9661254882813 310.988037109375 C -402.7338562011719 306.3463745117188 -399.8796997070313 302.1045837402344 -395.7322387695313 298.8263244628906 C -393.2382507324219 296.8544006347656 -390.3843078613281 295.3096618652344 -387.2493591308594 294.2348022460938 C -383.9875183105469 293.1170349121094 -380.5378112792969 292.5501708984375 -376.9964904785156 292.5501708984375 L -376.9964904785156 287.5501708984375 C -378.5330200195313 287.5501708984375 -380.0213012695313 287.2509155273438 -381.419921875 286.66064453125 C -382.7734069824219 286.0897216796875 -383.9887084960938 285.2722473144531 -385.0325012207031 284.2305908203125 C -386.0776062011719 283.1876525878906 -386.8967590332031 281.9757995605469 -387.4671936035156 280.6288146972656 C -388.0593872070313 279.2338562011719 -388.3592529296875 277.7514343261719 -388.3592529296875 276.2208251953125 C -388.3592529296875 274.6902770996094 -388.0593566894531 273.2074890136719 -387.4678649902344 271.8135070800781 C -386.8967590332031 270.4648132324219 -386.0776062011719 269.2530212402344 -385.0325012207031 268.2101135253906 C -383.9886169433594 267.16845703125 -382.7733459472656 266.3509216308594 -381.42041015625 265.7802734375 C -380.0198059082031 265.1891784667969 -378.5315551757813 264.8895874023438 -376.9964904785156 264.8895874023438 C -375.4622497558594 264.8895874023438 -373.9738159179688 265.1893005371094 -372.5726013183594 265.7802734375 C -371.2193603515625 266.3513793945313 -370.0039367675781 267.1689758300781 -368.96044921875 268.2101745605469 C -367.9167785644531 269.2515869140625 -367.0974426269531 270.4638061523438 -366.5252380371094 271.8130798339844 C -365.9338073730469 273.2087707519531 -365.6338195800781 274.6919555664063 -365.6338195800781 276.2208251953125 C -365.6338195800781 277.7498168945313 -365.9337768554688 279.2325439453125 -366.5253601074219 280.6278686523438 C -367.0974426269531 281.9768676757813 -367.9167785644531 283.1890869140625 -368.9605102539063 284.2305908203125 C -370.0038146972656 285.2716979980469 -371.2192993164063 286.0892944335938 -372.5730895996094 286.66064453125 C -373.9723510742188 287.2508239746094 -375.4607238769531 287.5501708984375 -376.9964904785156 287.5501708984375 L -376.9964904785156 292.5501708984375 C -373.4544067382813 292.5501708984375 -370.0047607421875 293.1170349121094 -366.743408203125 294.2349243164063 C -363.609619140625 295.3096618652344 -360.7554626464844 296.8544921875 -358.2607116699219 298.8263244628906 C -354.11328125 302.1050720214844 -351.2591552734375 306.3467102050781 -350.0269165039063 310.988037109375 Z M -223.9308166503906 296.53759765625 L -234.0458679199219 296.53759765625 C -235.1467132568359 296.53759765625 -236.0422973632813 295.6420288085938 -236.0422973632813 294.5411682128906 C -236.0422973632813 293.4408569335938 -235.1467132568359 292.5457153320313 -234.0458679199219 292.5457153320313 L -223.9308166503906 292.5457153320313 C -222.8299713134766 292.5457153320313 -221.9344024658203 293.4408569335938 -221.9344024658203 294.5411682128906 C -221.9344024658203 295.6420288085938 -222.8299713134766 296.53759765625 -223.9308166503906 296.53759765625 Z M -250.9065093994141 296.53759765625 L -261.0224914550781 296.53759765625 C -262.1228332519531 296.53759765625 -263.0179748535156 295.6420288085938 -263.0179748535156 294.5411682128906 C -263.0179748535156 293.4408569335938 -262.1228332519531 292.5457153320313 -261.0224914550781 292.5457153320313 L -250.9065093994141 292.5457153320313 C -249.8056640625 292.5457153320313 -248.9100799560547 293.4408569335938 -248.9100799560547 294.5411682128906 C -248.9100799560547 295.6420288085938 -249.8056640625 296.53759765625 -250.9065093994141 296.53759765625 Z M -277.8822021484375 296.53759765625 L -287.9981994628906 296.53759765625 C -289.0990295410156 296.53759765625 -289.9945983886719 295.6420288085938 -289.9945983886719 294.5411682128906 C -289.9945983886719 293.4408569335938 -289.0990295410156 292.5457153320313 -287.9981994628906 292.5457153320313 L -277.8822021484375 292.5457153320313 C -276.7814025878906 292.5457153320313 -275.8858337402344 293.4408569335938 -275.8858337402344 294.5411682128906 C -275.8858337402344 295.6420288085938 -276.7814025878906 296.53759765625 -277.8822021484375 296.53759765625 Z M -304.8579406738281 296.53759765625 L -314.9739379882813 296.53759765625 C -316.07470703125 296.53759765625 -316.9703063964844 295.6420288085938 -316.9703063964844 294.5411682128906 C -316.9703063964844 293.4408569335938 -316.07470703125 292.5457153320313 -314.9739379882813 292.5457153320313 L -304.8579406738281 292.5457153320313 C -303.7575988769531 292.5457153320313 -302.8623962402344 293.4408569335938 -302.8623962402344 294.5411682128906 C -302.8623962402344 295.6420288085938 -303.7575988769531 296.53759765625 -304.8579406738281 296.53759765625 Z M -331.8336181640625 296.53759765625 L -341.9496154785156 296.53759765625 C -343.0504455566406 296.53759765625 -343.946044921875 295.6420288085938 -343.946044921875 294.5411682128906 C -343.946044921875 293.4408569335938 -343.0504455566406 292.5457153320313 -341.9496154785156 292.5457153320313 L -331.8336181640625 292.5457153320313 C -330.7333068847656 292.5457153320313 -329.8380737304688 293.4408569335938 -329.8380737304688 294.5411682128906 C -329.8380737304688 295.6420288085938 -330.7333068847656 296.53759765625 -331.8336181640625 296.53759765625 Z M -16.02381896972656 294.612548828125 L -26.33429336547852 288.664794921875 C -26.33243751525879 288.4373168945313 -26.33150482177734 288.2089233398438 -26.33150482177734 287.9801940917969 C -26.33150482177734 287.855224609375 -26.33150672912598 287.731201171875 -26.33241271972656 287.6062622070313 C -26.38181686401367 274.8263244628906 -29.33222579956055 262.5602722167969 -35.10171508789063 251.1466522216797 C -42.39200973510742 236.6996612548828 -53.63906478881836 224.8574981689453 -67.68650817871094 216.8180084228516 L -67.68650817871094 204.7477416992188 C -65.84956359863281 205.6535949707031 -64.03787994384766 206.6210174560547 -62.27082061767578 207.6401214599609 C -56.81203079223633 210.7887573242188 -51.67161178588867 214.4869232177734 -46.99250411987305 218.6318664550781 C -42.43529510498047 222.6703338623047 -38.2639274597168 227.1783447265625 -34.59466171264648 232.0303344726563 C -30.98740005493164 236.8017578125 -27.82966232299805 241.9494476318359 -25.20934677124023 247.330078125 C -22.6091365814209 252.6662902832031 -20.51039886474609 258.2825622558594 -18.97108459472656 264.0234985351563 C -17.43239974975586 269.7577514648438 -16.43918991088867 275.670166015625 -16.0189266204834 281.5969848632813 C -15.867018699646 283.7579040527344 -15.78944301605225 285.9524536132813 -15.78850746154785 288.1184387207031 C -15.7923641204834 290.2792053222656 -15.87125778198242 292.451904296875 -16.02381896972656 294.612548828125 Z M -201.0621490478516 294.6123657226563 C -201.2149047851563 292.4489135742188 -201.2936248779297 290.2773742675781 -201.2969207763672 288.1221923828125 C -201.2969207763672 285.9488525390625 -201.2196655273438 283.7519836425781 -201.0673522949219 281.5963439941406 C -200.6470794677734 275.6702270507813 -199.6538696289063 269.7577514648438 -198.1153411865234 264.02392578125 C -196.5749816894531 258.2824401855469 -194.4761352539063 252.6659240722656 -191.8770904541016 247.3302917480469 C -189.2562408447266 241.9485473632813 -186.0982360839844 236.8009643554688 -182.4906616210938 232.0302886962891 C -178.8220367431641 227.1791229248047 -174.6509246826172 222.6710205078125 -170.0932464599609 218.6313934326172 C -165.4146575927734 214.4869232177734 -160.2742919921875 210.7887573242188 -154.8153991699219 207.6400756835938 C -153.0464782714844 206.6201782226563 -151.2344665527344 205.6526794433594 -149.39892578125 204.7475433349609 L -149.39892578125 216.8179321289063 C -163.4484710693359 224.8581237792969 -174.6963043212891 236.7017669677734 -181.9863433837891 251.1520690917969 C -187.7537384033203 262.5621643066406 -190.7035675048828 274.8262329101563 -190.7530212402344 287.6026000976563 C -190.7539215087891 287.7290344238281 -190.7539215087891 287.8537292480469 -190.7539215087891 287.9801940917969 C -190.7539215087891 288.207763671875 -190.7530059814453 288.43603515625 -190.7511749267578 288.664306640625 L -201.0621490478516 294.6123657226563 Z M -81.39112854003906 225.5978088378906 L -135.3311004638672 225.5978088378906 C -134.0995483398438 220.956298828125 -131.2454986572266 216.7146148681641 -127.0975570678711 213.4361267089844 C -124.602294921875 211.4638671875 -121.7482452392578 209.9190826416016 -118.6146621704102 208.8446502685547 C -115.3551864624023 207.726806640625 -111.9056625366211 207.1600189208984 -108.3618240356445 207.1600189208984 L -108.3618240356445 202.1600189208984 C -109.8965072631836 202.1600189208984 -111.385139465332 201.8605499267578 -112.7862930297852 201.2699737548828 C -114.1373443603516 200.6990814208984 -115.3535537719727 199.8809204101563 -116.3990859985352 198.8391265869141 C -117.4419250488281 197.7977142333984 -118.2614517211914 196.5852813720703 -118.8329772949219 195.2375030517578 C -119.4239273071289 193.8436584472656 -119.7236099243164 192.3609161376953 -119.7236099243164 190.8305969238281 C -119.7236099243164 189.2997131347656 -119.4239273071289 187.816650390625 -118.8329238891602 186.4226531982422 C -118.2614517211914 185.0750274658203 -117.4419250488281 183.8625946044922 -116.3971328735352 182.8192901611328 C -115.3544006347656 181.7787628173828 -114.1389770507813 180.961181640625 -112.7852935791016 180.3899230957031 C -111.3878707885742 179.7994384765625 -109.8999786376953 179.5002899169922 -108.3618240356445 179.5002899169922 C -106.8237686157227 179.5002899169922 -105.3353958129883 179.7994995117188 -103.9380340576172 180.3896484375 C -102.5837173461914 180.961181640625 -101.3682403564453 181.7787628173828 -100.324821472168 182.8199768066406 C -99.27950286865234 183.8638610839844 -98.46013641357422 185.0759124755859 -97.89013671875 186.4217529296875 C -97.29813385009766 187.8180694580078 -96.99819183349609 189.3011322021484 -96.99819183349609 190.8305969238281 C -96.99819183349609 192.3594970703125 -97.29813385009766 193.8422393798828 -97.8897705078125 195.2376556396484 C -98.46013641357422 196.5843963623047 -99.27950286865234 197.7964477539063 -100.325553894043 198.8410186767578 C -101.368034362793 199.8805999755859 -102.5840835571289 200.6985473632813 -103.9385070800781 201.2708587646484 C -105.3367691040039 201.8606567382813 -106.8255081176758 202.1600189208984 -108.3618240356445 202.1600189208984 L -108.3618240356445 207.1600189208984 C -104.8197708129883 207.1600189208984 -101.3697662353516 207.7268676757813 -98.107666015625 208.8448181152344 C -94.97455596923828 209.9190216064453 -92.12076568603516 211.4635467529297 -89.6259765625 213.4352874755859 C -85.47781372070313 216.7140655517578 -82.62335205078125 220.9559631347656 -81.39112854003906 225.5978088378906 Z" stroke="none"/>
      <path d="M -108.542724609375 378.337890625 C -102.464241027832 378.3252868652344 -96.39137268066406 377.7074584960938 -90.4925537109375 376.5014038085938 C -84.69261169433594 375.3161926269531 -78.9832763671875 373.5453491210938 -73.52322387695313 371.2379760742188 C -69.40159606933594 369.4963073730469 -65.39194488525391 367.4355773925781 -61.55895614624023 365.0907287597656 L -67.19760131835938 361.8377075195313 C -79.73395538330078 368.8160705566406 -93.91579437255859 372.498291015625 -108.2987213134766 372.498291015625 C -108.3812408447266 372.498291015625 -108.4660949707031 372.4981384277344 -108.5487213134766 372.4979248046875 C -108.6286544799805 372.4981994628906 -108.7084884643555 372.498291015625 -108.7885055541992 372.498291015625 C -123.1716461181641 372.498291015625 -137.3534698486328 368.8158874511719 -149.8890838623047 361.8374938964844 L -155.5274047851563 365.0905151367188 C -151.6938018798828 367.4356384277344 -147.6838989257813 369.4966125488281 -143.5630035400391 371.2379760742188 C -138.1029510498047 373.5453491210938 -132.3936614990234 375.3162536621094 -126.5932235717773 376.5015258789063 C -120.6949081420898 377.7074584960938 -114.6217651367188 378.3252868652344 -108.542724609375 378.337890625 M -13.59617805480957 343.247802734375 C -14.95315170288086 340.3560791015625 -17.06659889221191 337.7218933105469 -19.81772422790527 335.5478515625 C -22.08822441101074 333.7526245117188 -24.69344711303711 332.3436889648438 -27.56022453308105 331.3605041503906 C -30.55983543395996 330.3323059082031 -33.73672485351563 329.8109130859375 -37.00261306762695 329.8109130859375 L -37.00261306762695 319.8109130859375 C -35.80183410644531 319.8109130859375 -34.64072418212891 319.5776977539063 -33.55022430419922 319.1170654296875 C -32.49433517456055 318.6715087890625 -31.54600143432617 318.033447265625 -30.73283576965332 317.2220153808594 C -29.91913986206055 316.409423828125 -29.27999114990234 315.4646911621094 -28.83316802978516 314.4139709472656 C -28.37255668640137 313.3261413574219 -28.13900184631348 312.1710205078125 -28.13900184631348 310.9806213378906 C -28.13900184631348 309.7896423339844 -28.37255668640137 308.6341857910156 -28.83316802978516 307.5463562011719 L -28.83314895629883 307.5463562011719 C -29.28070068359375 306.4949645996094 -29.91938400268555 305.5509033203125 -30.73027992248535 304.7417297363281 C -31.5466136932373 303.927734375 -32.49611282348633 303.2886962890625 -33.54933547973633 302.8435668945313 C -34.6400032043457 302.3835754394531 -35.80183410644531 302.1502990722656 -37.00261306762695 302.1502990722656 C -38.20328140258789 302.1502990722656 -39.36455917358398 302.3833923339844 -40.45277786254883 302.8426818847656 C -41.508056640625 303.2883605957031 -42.45722579956055 303.9273071289063 -43.27266693115234 304.7404174804688 C -44.0873908996582 305.5534057617188 -44.72655868530273 306.4985656738281 -45.17205810546875 307.5485229492188 C -45.63205718994141 308.6334533691406 -45.86528015136719 309.7881774902344 -45.86528015136719 310.9806213378906 C -45.86528015136719 312.1724548339844 -45.63205718994141 313.3268432617188 -45.17216873168945 314.4115600585938 C -44.72689056396484 315.4616394042969 -44.0873908996582 316.4071960449219 -43.27266693115234 317.2207946777344 C -42.45783615112305 318.0339050292969 -41.50983428955078 318.6717834472656 -40.45188903808594 319.1180114746094 C -39.36383438110352 319.5777893066406 -38.20333480834961 319.8109130859375 -37.00261306762695 319.8109130859375 L -37.00261306762695 329.8109130859375 C -40.26988983154297 329.8109130859375 -43.44655609130859 330.3321838378906 -46.44461441040039 331.3604125976563 C -49.3099479675293 332.3428649902344 -51.91527938842773 333.7518615722656 -54.18816757202148 335.54833984375 C -56.93820190429688 337.7219543457031 -59.05144500732422 340.3564758300781 -60.40823364257813 343.247802734375 L -13.59617805480957 343.247802734375 M -157.3862609863281 343.247802734375 C -158.7435150146484 340.3562316894531 -160.8571929931641 337.7216491699219 -163.6079406738281 335.5478515625 C -165.8791198730469 333.752197265625 -168.4842224121094 332.3432922363281 -171.3505554199219 331.3605041503906 C -174.3501739501953 330.3323059082031 -177.5270538330078 329.8109130859375 -180.7928924560547 329.8109130859375 L -180.7928924560547 319.8109130859375 C -179.5921630859375 319.8109130859375 -178.4310607910156 319.5776977539063 -177.3404998779297 319.1170654296875 C -176.2836761474609 318.6710815429688 -175.3358306884766 318.0335083007813 -174.5219421386719 317.2207946777344 C -173.7072296142578 316.4078063964844 -173.0681610107422 315.4626159667969 -172.6234436035156 314.4138488769531 C -172.1634521484375 313.3275756835938 -171.9302215576172 312.1725158691406 -171.9302215576172 310.9806213378906 C -171.9302215576172 309.7881164550781 -172.1634521484375 308.6327514648438 -172.6220550537109 307.5496826171875 C -173.0684509277344 306.4976196289063 -173.7072296142578 305.5528564453125 -174.5218353271484 304.7405090332031 C -175.3363952636719 303.927734375 -176.2854461669922 303.2890625 -177.3396759033203 302.8435668945313 C -178.4303283691406 302.3835754394531 -179.5921630859375 302.1502990722656 -180.7928924560547 302.1502990722656 C -181.9930572509766 302.1502990722656 -183.1545562744141 302.3835144042969 -184.2430572509766 302.8426818847656 C -185.29833984375 303.2883605957031 -186.2474975585938 303.9273071289063 -187.0629425048828 304.7404174804688 C -187.8776702880859 305.553466796875 -188.5162811279297 306.4978637695313 -188.9622802734375 307.5505676269531 C -189.4217834472656 308.6329040527344 -189.6547241210938 309.7869567871094 -189.6547241210938 310.9806213378906 C -189.6547241210938 312.1736755371094 -189.4217834472656 313.327392578125 -188.9605560302734 314.4137878417969 C -188.5165557861328 315.4623413085938 -187.8776702880859 316.4071960449219 -187.0629425048828 317.2207946777344 C -186.2481079101563 318.0339050292969 -185.3001098632813 318.6717834472656 -184.2421112060547 319.1180114746094 C -183.1541748046875 319.5777893066406 -181.9936676025391 319.8109130859375 -180.7928924560547 319.8109130859375 L -180.7928924560547 329.8109130859375 C -184.0594482421875 329.8109130859375 -187.2361755371094 330.3322448730469 -190.2349395751953 331.3604125976563 C -193.1004943847656 332.3428955078125 -195.7052764892578 333.7518005371094 -197.9778900146484 335.5486145019531 C -200.7280578613281 337.7219543457031 -202.8415069580078 340.3562927246094 -204.1986694335938 343.247802734375 L -157.3862609863281 343.247802734375 M -353.5906677246094 308.4880065917969 C -354.9477844238281 305.5963745117188 -357.0610961914063 302.9615783691406 -359.8110046386719 300.7876281738281 C -362.0832824707031 298.9916381835938 -364.6886596679688 297.5825805664063 -367.5541076660156 296.599853515625 C -370.5538940429688 295.5715637207031 -373.7307739257813 295.0501708984375 -376.9964904785156 295.0501708984375 L -376.9964904785156 285.0501708984375 C -375.7962646484375 285.0501708984375 -374.634765625 284.8169555664063 -373.5451049804688 284.3573608398438 C -372.4892272949219 283.9117431640625 -371.5408325195313 283.273681640625 -370.7264404296875 282.4610290527344 C -369.9117736816406 281.6480102539063 -369.2726745605469 280.7027893066406 -368.8270568847656 279.6520080566406 C -368.3670654296875 278.5670776367188 -368.1338500976563 277.4126281738281 -368.1338500976563 276.2207946777344 C -368.1338500976563 275.0289611816406 -368.3671569824219 273.8739013671875 -368.8268432617188 272.7890625 C -369.2726745605469 271.7379150390625 -369.9117126464844 270.792724609375 -370.7264404296875 269.979736328125 C -371.5408935546875 269.1670227050781 -372.4892272949219 268.5289611816406 -373.5441589355469 268.083740234375 C -374.6361694335938 267.6231689453125 -375.7976684570313 267.3896179199219 -376.9964904785156 267.3896179199219 C -378.1958923339844 267.3896179199219 -379.3571166992188 267.6230163574219 -380.4487915039063 268.083740234375 C -381.5037231445313 268.5287475585938 -382.4517211914063 269.1666259765625 -383.2666625976563 269.9798583984375 C -384.082275390625 270.7936706542969 -384.7210693359375 271.7381896972656 -385.1664428710938 272.789794921875 C -385.6260986328125 273.8733520507813 -385.8592224121094 275.0276794433594 -385.8592224121094 276.2207946777344 C -385.8592224121094 277.4139099121094 -385.6262817382813 278.567626953125 -385.1652221679688 279.6536865234375 C -384.7210693359375 280.7025146484375 -384.0822143554688 281.6470031738281 -383.2665710449219 282.4610290527344 C -382.4517822265625 283.2740783691406 -381.5037231445313 283.9119567871094 -380.4479370117188 284.3572998046875 C -379.3584899902344 284.8170776367188 -378.197265625 285.0501708984375 -376.9964904785156 285.0501708984375 L -376.9964904785156 295.0501708984375 C -380.2614440917969 295.0501708984375 -383.4385070800781 295.5716247558594 -386.4385986328125 296.5997314453125 C -389.30517578125 297.5825805664063 -391.9102172851563 298.9913940429688 -394.1820068359375 300.7876281738281 C -396.9321899414063 302.96142578125 -399.0454406738281 305.595947265625 -400.4025268554688 308.4880065917969 L -353.5906677246094 308.4880065917969 M -18.32121086120605 290.4010620117188 C -18.30079650878906 289.6383056640625 -18.28987503051758 288.8762817382813 -18.28850746154785 288.1154174804688 C -18.28953170776367 286.0089416503906 -18.36502456665039 283.8743286132813 -18.51266860961914 281.7738037109375 C -18.92166900634766 276.0060119628906 -19.88822364807129 270.2520751953125 -21.38578033447266 264.6708984375 C -22.88383483886719 259.0838928222656 -24.92633438110352 253.6181793212891 -27.45694732666016 248.4246826171875 C -30.00650215148926 243.1893463134766 -33.07900238037109 238.1806793212891 -36.58872604370117 233.5382995605469 C -40.1583366394043 228.8180236816406 -44.21666717529297 224.4321899414063 -48.65022277832031 220.5032348632813 C -53.20355606079102 216.4696807861328 -58.20644760131836 212.8705139160156 -63.51983642578125 209.8058013916016 C -64.07113647460938 209.4878234863281 -64.62692260742188 209.1750183105469 -65.18650054931641 208.8677368164063 L -65.18650054931641 215.3824615478516 C -51.29843902587891 223.645263671875 -40.1629753112793 235.5675354003906 -32.87061309814453 250.0188446044922 C -26.98081970214844 261.6702270507813 -23.94150161743164 274.183837890625 -23.83473205566406 287.2205200195313 L -18.32121086120605 290.4010620117188 M -198.7646636962891 290.4008483886719 L -193.2506408691406 287.2200012207031 C -193.1426391601563 274.3614501953125 -190.0219421386719 261.5075988769531 -184.2183837890625 250.0260772705078 C -176.9253997802734 235.5698394775391 -165.7890319824219 223.6459197998047 -151.8988952636719 215.3823852539063 L -151.8988952636719 208.8674163818359 C -152.4586334228516 209.1747436523438 -153.0145111083984 209.487548828125 -153.5662841796875 209.8056793212891 C -158.8798370361328 212.8705139160156 -163.8827209472656 216.4696807861328 -168.4349975585938 220.5022888183594 C -172.8694458007813 224.4327392578125 -176.9275512695313 228.8186798095703 -180.4966125488281 233.5381774902344 C -184.0066680908203 238.1799011230469 -187.0793304443359 243.1884002685547 -189.6295623779297 248.4250793457031 C -192.1589965820313 253.6180114746094 -194.2016754150391 259.0841369628906 -195.7007293701172 264.6718444824219 C -197.197998046875 270.2518615722656 -198.1646118164063 276.0057983398438 -198.5735626220703 281.7726135253906 C -198.7215728759766 283.8671875 -198.7967376708984 286.0025634765625 -198.7968902587891 288.1194458007813 C -198.7957305908203 288.8780517578125 -198.7849578857422 289.6391906738281 -198.7646636962891 290.4008483886719 M -84.95478057861328 223.0977935791016 C -86.31197357177734 220.2057952880859 -88.42565155029297 217.5706634521484 -91.17605590820313 215.3966827392578 C -93.44855499267578 213.6006774902344 -96.05361175537109 212.1919097900391 -98.91822052001953 211.2097320556641 C -101.9188385009766 210.1814117431641 -105.0961151123047 209.6600189208984 -108.3617782592773 209.6600189208984 L -108.3617782592773 199.6600189208984 C -107.161003112793 199.6600189208984 -105.9991683959961 199.4267883300781 -104.9116134643555 198.968017578125 C -103.8543319702148 198.521240234375 -102.9048385620117 197.8824615478516 -102.0920562744141 197.072021484375 C -101.2751159667969 196.2562408447266 -100.6359481811523 195.3113555908203 -100.1914443969727 194.2617950439453 C -99.7314453125 193.1767425537109 -99.4981689453125 192.0223541259766 -99.4981689453125 190.8306274414063 C -99.4981689453125 189.6382904052734 -99.7314453125 188.4835662841797 -100.1922760009766 187.3966217041016 C -100.6359481811523 186.3489685058594 -101.2751159667969 185.4040679931641 -102.0907211303711 184.5896301269531 C -102.9052810668945 183.7767944335938 -103.8536148071289 183.1387939453125 -104.9107208251953 182.6926879882813 C -105.9985580444336 182.2332458496094 -107.1596145629883 182.0002899169922 -108.3617782592773 182.0002899169922 C -109.5639495849609 182.0002899169922 -110.7244491577148 182.2331237792969 -111.8132781982422 182.6932373046875 C -112.8691101074219 183.1387939453125 -113.8174438476563 183.77685546875 -114.6305541992188 184.5882415771484 C -115.4466094970703 185.4031219482422 -116.0861129760742 186.3487396240234 -116.5312271118164 187.3984069824219 C -116.9906692504883 188.4821319580078 -117.2236099243164 189.6369018554688 -117.2236099243164 190.8306274414063 C -117.2236099243164 192.0237426757813 -116.9906692504883 193.1781768798828 -116.5313873291016 194.2615661621094 C -116.0861129760742 195.3115692138672 -115.4466094970703 196.2571868896484 -114.6305541992188 197.0720672607422 L -114.6305770874023 197.0720977783203 C -113.814338684082 197.8844604492188 -112.8657760620117 198.5223388671875 -111.8152236938477 198.9662322998047 C -110.7230606079102 199.4266357421875 -109.561164855957 199.6600189208984 -108.3617782592773 199.6600189208984 L -108.3617782592773 209.6600189208984 C -111.6290588378906 209.6600189208984 -114.8057250976563 210.1812896728516 -117.8038330078125 211.2095184326172 C -120.6691131591797 212.1919097900391 -123.2743911743164 213.6009674072266 -125.5473327636719 215.3974609375 C -128.297607421875 217.5712432861328 -130.4110107421875 220.2061157226563 -131.7677917480469 223.0977935791016 L -84.95478057861328 223.0977935791016 M -108.542724609375 383.3379211425781 C -114.9561157226563 383.3252868652344 -121.3658905029297 382.6736755371094 -127.5947799682617 381.4001770019531 C -133.7211151123047 380.1482849121094 -139.7483978271484 378.2781372070313 -145.50927734375 375.8436279296875 C -151.1640014648438 373.4541320800781 -156.6179962158203 370.4957885742188 -161.7210083007813 367.051513671875 C -162.8162841796875 366.3126220703125 -163.8981170654297 365.5485229492188 -164.9646148681641 364.7627868652344 L -149.8832855224609 356.0616149902344 C -149.427001953125 356.3370056152344 -148.9680023193359 356.6070251464844 -148.5045013427734 356.875244140625 C -136.2179565429688 363.9627990722656 -122.5029754638672 367.498291015625 -108.7884826660156 367.498291015625 C -108.7068023681641 367.498291015625 -108.6252899169922 367.4981689453125 -108.5436096191406 367.4978942871094 C -108.462776184082 367.4981689453125 -108.3795776367188 367.498291015625 -108.2987442016602 367.498291015625 C -94.58341217041016 367.498291015625 -80.86996459960938 363.9632263183594 -68.58177947998047 356.875244140625 C -68.11827850341797 356.6070251464844 -67.66017150878906 356.3370056152344 -67.20388793945313 356.0616149902344 L -52.12172317504883 364.7627868652344 C -53.18816757202148 365.5485229492188 -54.26911163330078 366.3126220703125 -55.36528015136719 367.051513671875 C -60.46739196777344 370.4957885742188 -65.92227935791016 373.4541320800781 -71.57700347900391 375.8436279296875 C -77.337890625 378.2781372070313 -83.36522674560547 380.1482849121094 -89.49150085449219 381.4001770019531 C -95.72039031982422 382.6736755371094 -102.1302261352539 383.3252868652344 -108.542724609375 383.3379211425781 Z M -37.00261306762695 361.45263671875 C -37.84950256347656 361.45263671875 -38.70450210571289 361.426513671875 -39.54511260986328 361.3742980957031 L -34.45916748046875 361.3742980957031 C -35.30427932739258 361.426513671875 -36.15927886962891 361.45263671875 -37.00261306762695 361.45263671875 Z M -180.7928924560547 361.45263671875 C -181.6388854980469 361.45263671875 -182.493896484375 361.426513671875 -183.3362731933594 361.3742980957031 L -178.2486114501953 361.3742980957031 C -179.0946197509766 361.426513671875 -179.9505004882813 361.45263671875 -180.7928924560547 361.45263671875 Z M -66.95188903808594 348.4179077148438 L -66.95188903808594 348.4170227050781 L -67.0050048828125 348.3585205078125 C -66.26161193847656 341.9325256347656 -62.81011199951172 335.9898071289063 -57.28861236572266 331.6256713867188 C -54.57061386108398 329.4774169921875 -51.46828079223633 327.797119140625 -48.06628036499023 326.6306762695313 C -44.54461288452148 325.4229125976563 -40.82222366333008 324.8109130859375 -37.00261306762695 324.8109130859375 C -38.87461471557617 324.8109130859375 -40.68989181518555 324.4455261230469 -42.39811325073242 323.7236938476563 C -44.04961395263672 323.0271301269531 -45.53100204467773 322.0308532714844 -46.80450057983398 320.760009765625 C -48.07711410522461 319.4891967773438 -49.07700347900391 318.0105285644531 -49.775390625 316.363525390625 C -50.49811172485352 314.6589050292969 -50.86528015136719 312.8471984863281 -50.86528015136719 310.9806213378906 C -50.86528015136719 309.1130676269531 -50.49811172485352 307.3013916015625 -49.775390625 305.5968017578125 C -49.07700347900391 303.9507446289063 -48.07711410522461 302.4711303710938 -46.80450057983398 301.201171875 C -45.53100204467773 299.9313049316406 -44.04961395263672 298.9341430664063 -42.39811325073242 298.2366333007813 C -40.68989181518555 297.5157470703125 -38.8736686706543 297.1502990722656 -37.00261306762695 297.1502990722656 C -35.13061141967773 297.1502990722656 -33.31528091430664 297.5157470703125 -31.60616874694824 298.2366333007813 C -29.95561218261719 298.9341430664063 -28.47327995300293 299.9313049316406 -27.19977951049805 301.201171875 C -25.92716789245605 302.4711303710938 -24.92822456359863 303.9507446289063 -24.22889137268066 305.5968017578125 C -23.50711250305176 307.3013916015625 -23.13900184631348 309.1130676269531 -23.13900184631348 310.9806213378906 C -23.13900184631348 312.8471984863281 -23.50711250305176 314.6589050292969 -24.22889137268066 316.363525390625 C -24.92822456359863 318.0105285644531 -25.92716789245605 319.4891967773438 -27.19977951049805 320.760009765625 C -28.47327995300293 322.0308532714844 -29.95561218261719 323.0271301269531 -31.60616874694824 323.7236938476563 C -33.31528091430664 324.4455261230469 -35.13061141967773 324.8109130859375 -37.00261306762695 324.8109130859375 C -33.18300247192383 324.8109130859375 -29.45966911315918 325.4237976074219 -25.93889045715332 326.6306762695313 C -22.53777885437012 327.797119140625 -19.43366813659668 329.4774169921875 -16.71661376953125 331.6256713867188 C -11.19416904449463 335.9898071289063 -7.742723941802979 341.9325256347656 -6.999279499053955 348.3585205078125 L -7.053279876708984 348.4161376953125 L -7.053279876708984 348.247802734375 L -66.95188903808594 348.247802734375 L -66.95188903808594 348.4170227050781 L -66.95188903808594 348.4179077148438 Z M -210.7422180175781 348.4179077148438 L -210.7422180175781 348.4170227050781 L -210.7962188720703 348.3585205078125 C -210.0518951416016 341.9325256347656 -206.6003875732422 335.9898071289063 -201.0780029296875 331.6256713867188 C -198.3608856201172 329.4774169921875 -195.2586059570313 327.797119140625 -191.8566131591797 326.6306762695313 C -188.3339996337891 325.4229125976563 -184.6125030517578 324.8109130859375 -180.7928924560547 324.8109130859375 C -182.6640014648438 324.8109130859375 -184.480224609375 324.4455261230469 -186.1883850097656 323.7236938476563 C -187.8398895263672 323.0271301269531 -189.3212738037109 322.0308532714844 -190.5947723388672 320.760009765625 C -191.8673858642578 319.4891967773438 -192.8673400878906 318.0105285644531 -193.5647735595703 316.363525390625 C -194.2883911132813 314.6589050292969 -194.6547241210938 312.8471984863281 -194.6547241210938 310.9806213378906 C -194.6547241210938 309.1130676269531 -194.2883911132813 307.3013916015625 -193.5647735595703 305.5968017578125 C -192.8673400878906 303.9507446289063 -191.8673858642578 302.4711303710938 -190.5947723388672 301.201171875 C -189.3212738037109 299.9313049316406 -187.8398895263672 298.9341430664063 -186.1883850097656 298.2366333007813 C -184.4793395996094 297.5157470703125 -182.6640014648438 297.1502990722656 -180.7928924560547 297.1502990722656 C -178.9217834472656 297.1502990722656 -177.1056060791016 297.5157470703125 -175.3964996337891 298.2366333007813 C -173.7458953857422 298.9341430664063 -172.2627258300781 299.9313049316406 -170.9901123046875 301.201171875 C -169.7166137695313 302.4711303710938 -168.7176055908203 303.9507446289063 -168.0192260742188 305.5968017578125 C -167.2973937988281 307.3013916015625 -166.9302215576172 309.1130676269531 -166.9302215576172 310.9806213378906 C -166.9302215576172 312.8471984863281 -167.2973937988281 314.6589050292969 -168.0192260742188 316.363525390625 C -168.7176055908203 318.0105285644531 -169.7166137695313 319.4891967773438 -170.9901123046875 320.760009765625 C -172.2627258300781 322.0308532714844 -173.7458953857422 323.0271301269531 -175.3964996337891 323.7236938476563 C -177.1056060791016 324.4455261230469 -178.9217834472656 324.8109130859375 -180.7928924560547 324.8109130859375 C -176.9723968505859 324.8109130859375 -173.25 325.4237976074219 -169.7292175292969 326.6306762695313 C -166.3272247314453 327.797119140625 -163.2239990234375 329.4774169921875 -160.5068969726563 331.6256713867188 C -154.9844970703125 335.9898071289063 -151.5330047607422 341.9325256347656 -150.7886657714844 348.3585205078125 L -150.8436126708984 348.4161376953125 L -150.8436126708984 348.247802734375 L -210.7422180175781 348.247802734375 L -210.7422180175781 348.4170227050781 L -210.7422180175781 348.4179077148438 Z M -376.9964904785156 326.6928100585938 C -377.8424987792969 326.6928100585938 -378.6983947753906 326.666748046875 -379.5398864746094 326.6145324707031 L -374.453125 326.6145324707031 C -375.2982177734375 326.666748046875 -376.1541137695313 326.6928100585938 -376.9964904785156 326.6928100585938 Z M -406.9457702636719 313.6581420898438 L -406.9467163085938 313.6571960449219 L -406.9998474121094 313.5986938476563 C -406.2554931640625 307.1726989746094 -402.8049011230469 301.2300109863281 -397.2825012207031 296.8650207519531 C -394.5653991699219 294.7166748046875 -391.4622192382813 293.0364074707031 -388.0602111816406 291.8700256347656 C -384.5385131835938 290.6631164550781 -380.8161010742188 290.0501708984375 -376.9964904785156 290.0501708984375 C -378.8684997558594 290.0501708984375 -380.6837768554688 289.6847839355469 -382.3919982910156 288.9638977050781 C -384.0434875488281 288.2673034667969 -385.5258483886719 287.2701416015625 -386.7984008789063 286.000244140625 C -388.0718994140625 284.7294006347656 -389.07177734375 283.2506713867188 -389.7693481445313 281.6036987304688 C -390.4928894042969 279.8991394042969 -390.8592224121094 278.08740234375 -390.8592224121094 276.2207946777344 C -390.8592224121094 274.3533020019531 -390.4928894042969 272.5425109863281 -389.7693481445313 270.8370056152344 C -389.07177734375 269.1900024414063 -388.0718994140625 267.7113037109375 -386.7984008789063 266.4405212402344 C -385.5258483886719 265.1705627441406 -384.0434875488281 264.1734008789063 -382.3919982910156 263.476806640625 C -380.6837768554688 262.7559204101563 -378.8676147460938 262.3896179199219 -376.9964904785156 262.3896179199219 C -375.1253967285156 262.3896179199219 -373.3101196289063 262.7559204101563 -371.6010131835938 263.476806640625 C -369.9503784179688 264.1734008789063 -368.4672241210938 265.1705627441406 -367.1946105957031 266.4405212402344 C -365.9211120605469 267.7113037109375 -364.922119140625 269.1900024414063 -364.2236633300781 270.8370056152344 C -363.5010070800781 272.5425109863281 -363.1338500976563 274.3533020019531 -363.1338500976563 276.2207946777344 C -363.1338500976563 278.08740234375 -363.5010070800781 279.8991394042969 -364.2236633300781 281.6036987304688 C -364.922119140625 283.2506713867188 -365.9211120605469 284.7294006347656 -367.1946105957031 286.000244140625 C -368.4672241210938 287.2701416015625 -369.9503784179688 288.2673034667969 -371.6010131835938 288.9638977050781 C -373.3101196289063 289.6847839355469 -375.1253967285156 290.0501708984375 -376.9964904785156 290.0501708984375 C -373.1759948730469 290.0501708984375 -369.45361328125 290.6631164550781 -365.9327697753906 291.8700256347656 C -362.53173828125 293.0364074707031 -359.4284973144531 294.7166748046875 -356.7105102539063 296.8650207519531 C -351.1889953613281 301.2300109863281 -347.7374877929688 307.1726989746094 -346.9931640625 313.5986938476563 L -347.0472106933594 313.6562805175781 L -347.0481262207031 313.4880065917969 L -406.9457702636719 313.4880065917969 L -406.9457702636719 313.6571960449219 L -406.9457702636719 313.6581420898438 Z M -223.9307861328125 299.0375671386719 L -234.0458984375 299.0375671386719 C -236.5290069580078 299.0375671386719 -238.5423278808594 297.0243530273438 -238.5423278808594 294.5411987304688 C -238.5423278808594 292.0581359863281 -236.5290069580078 290.0457458496094 -234.0458984375 290.0457458496094 L -223.9307861328125 290.0457458496094 C -221.4477233886719 290.0457458496094 -219.4343872070313 292.0581359863281 -219.4343872070313 294.5411987304688 C -219.4343872070313 297.0243530273438 -221.4477233886719 299.0375671386719 -223.9307861328125 299.0375671386719 Z M -250.9065093994141 299.0375671386719 L -261.0224914550781 299.0375671386719 C -263.505615234375 299.0375671386719 -265.5180053710938 297.0243530273438 -265.5180053710938 294.5411987304688 C -265.5180053710938 292.0581359863281 -263.505615234375 290.0457458496094 -261.0224914550781 290.0457458496094 L -250.9065093994141 290.0457458496094 C -248.4233856201172 290.0457458496094 -246.4101104736328 292.0581359863281 -246.4101104736328 294.5411987304688 C -246.4101104736328 297.0243530273438 -248.4233856201172 299.0375671386719 -250.9065093994141 299.0375671386719 Z M -277.8822326660156 299.0375671386719 L -287.9981689453125 299.0375671386719 C -290.4812927246094 299.0375671386719 -292.4945983886719 297.0243530273438 -292.4945983886719 294.5411987304688 C -292.4945983886719 292.0581359863281 -290.4812927246094 290.0457458496094 -287.9981689453125 290.0457458496094 L -277.8822326660156 290.0457458496094 C -275.3991088867188 290.0457458496094 -273.3857727050781 292.0581359863281 -273.3857727050781 294.5411987304688 C -273.3857727050781 297.0243530273438 -275.3991088867188 299.0375671386719 -277.8822326660156 299.0375671386719 Z M -304.8578796386719 299.0375671386719 L -314.973876953125 299.0375671386719 C -317.4570007324219 299.0375671386719 -319.4702758789063 297.0243530273438 -319.4702758789063 294.5411987304688 C -319.4702758789063 292.0581359863281 -317.4570007324219 290.0457458496094 -314.973876953125 290.0457458496094 L -304.8578796386719 290.0457458496094 C -302.3748474121094 290.0457458496094 -300.3623962402344 292.0581359863281 -300.3623962402344 294.5411987304688 C -300.3623962402344 297.0243530273438 -302.3748474121094 299.0375671386719 -304.8578796386719 299.0375671386719 Z M -331.8336181640625 299.0375671386719 L -341.9496154785156 299.0375671386719 C -344.4327392578125 299.0375671386719 -346.4460144042969 297.0243530273438 -346.4460144042969 294.5411987304688 C -346.4460144042969 292.0581359863281 -344.4327392578125 290.0457458496094 -341.9496154785156 290.0457458496094 L -331.8336181640625 290.0457458496094 C -329.3513793945313 290.0457458496094 -327.3381042480469 292.0581359863281 -327.3381042480469 294.5411987304688 C -327.3381042480469 297.0243530273438 -329.3513793945313 299.0375671386719 -331.8336181640625 299.0375671386719 Z M -13.88966846466064 298.7297973632813 L -28.85939025878906 290.0942993164063 C -28.84050178527832 289.3923034667969 -28.83150100708008 288.6866760253906 -28.83150100708008 287.9801940917969 C -28.83150100708008 287.859619140625 -28.83150100708008 287.7398986816406 -28.8323917388916 287.6192932128906 C -28.87828063964844 275.6528930664063 -31.62689018249512 263.5622863769531 -37.33288955688477 252.2745208740234 C -44.4617805480957 238.1471862792969 -55.78561401367188 226.1889038085938 -70.18650054931641 218.2824096679688 L -70.18650054931641 200.8188018798828 C -67.05805969238281 202.2039031982422 -63.99450302124023 203.760009765625 -61.02177810668945 205.4745178222656 C -55.41389083862305 208.7091217041016 -50.13628005981445 212.5071258544922 -45.33477783203125 216.7605133056641 C -40.65389251708984 220.9086303710938 -36.36989212036133 225.5381774902344 -32.60066986083984 230.5223999023438 C -28.8998908996582 235.4175109863281 -25.65539169311523 240.7041320800781 -22.96166801452637 246.2355194091797 C -20.29139137268066 251.7156219482422 -18.13677978515625 257.4819030761719 -16.5563907623291 263.3760070800781 C -14.97511291503906 269.2691955566406 -13.95627975463867 275.3406372070313 -13.52516841888428 281.4201354980469 C -13.36861324310303 283.6476135253906 -13.28939056396484 285.8840637207031 -13.28850173950195 288.1215209960938 C -13.29477977752686 291.6692810058594 -13.49550151824951 295.2153015136719 -13.88966846466064 298.7297973632813 Z M -203.1966094970703 298.7297973632813 C -203.5898895263672 295.2162475585938 -203.79150390625 291.6720275878906 -203.7968902587891 288.1260070800781 C -203.7968902587891 285.8868103027344 -203.7186126708984 283.6485290527344 -203.5611114501953 281.4201354980469 C -203.1300048828125 275.3406372070313 -202.1112213134766 269.2691955566406 -200.5298919677734 263.3760070800781 C -198.9486083984375 257.4819030761719 -196.7940063476563 251.7156219482422 -194.1246185302734 246.2355194091797 C -191.4308929443359 240.7041320800781 -188.1863861083984 235.4175109863281 -184.4847259521484 230.5223999023438 C -180.7154998779297 225.5381774902344 -176.4315032958984 220.9086303710938 -171.7514953613281 216.7605133056641 C -166.9499969482422 212.5071258544922 -161.6723937988281 208.7091217041016 -156.0644989013672 205.4745178222656 C -153.0908966064453 203.760009765625 -150.0282287597656 202.2039031982422 -146.8988952636719 200.8188018798828 L -146.8988952636719 218.2824096679688 C -161.3025054931641 226.1897888183594 -172.6253967285156 238.1471862792969 -179.7542724609375 252.2781219482422 C -185.4576110839844 263.5614013671875 -188.2071075439453 275.65380859375 -188.2530059814453 287.6148071289063 C -188.2538909912109 287.7372436523438 -188.2538909912109 287.8577880859375 -188.2538909912109 287.9801940917969 C -188.2538909912109 288.6866760253906 -188.2448883056641 289.3923034667969 -188.2268981933594 290.0942993164063 L -203.1966094970703 298.7297973632813 Z M -108.3617782592773 241.3017425537109 C -109.2068939208984 241.3017425537109 -110.063720703125 241.275634765625 -110.9042816162109 241.2242889404297 L -105.8183898925781 241.2242889404297 C -106.6626129150391 241.275634765625 -107.5185012817383 241.3017425537109 -108.3617782592773 241.3017425537109 Z M -138.3111114501953 228.2679138183594 L -138.3111114501953 228.2670135498047 L -138.3641662597656 228.2076263427734 C -137.6207733154297 221.7825164794922 -134.1692810058594 215.8389129638672 -128.6477813720703 211.4747924804688 C -125.9297790527344 209.3265228271484 -122.8274993896484 207.646240234375 -119.4254989624023 206.4797973632813 C -115.9037780761719 205.2720184326172 -112.1813888549805 204.6600189208984 -108.3617782592773 204.6600189208984 C -110.2328872680664 204.6600189208984 -112.0491104125977 204.2936859130859 -113.7572784423828 203.5736846923828 C -115.4078903198242 202.8761901855469 -116.8902206420898 201.8790130615234 -118.1637268066406 200.6100158691406 C -119.436279296875 199.3391876220703 -120.4362258911133 197.8605194091797 -121.1346130371094 196.2135162353516 C -121.8572769165039 194.5089111328125 -122.2236099243164 192.6971893310547 -122.2236099243164 190.8306274414063 C -122.2236099243164 188.963134765625 -121.8572769165039 187.1514129638672 -121.1346130371094 185.4467926025391 C -120.4362258911133 183.7997894287109 -119.436279296875 182.3211212158203 -118.1637268066406 181.05029296875 C -116.8902206420898 179.7795104980469 -115.4078903198242 178.7831878662109 -113.7572784423828 178.0866241455078 C -112.0491104125977 177.3647918701172 -110.2328872680664 177.0002899169922 -108.3617782592773 177.0002899169922 C -106.4897766113281 177.0002899169922 -104.6744995117188 177.3647918701172 -102.9653930664063 178.0866241455078 C -101.3147811889648 178.7831878662109 -99.83250427246094 179.7795104980469 -98.55900573730469 181.05029296875 C -97.28639221191406 182.3211212158203 -96.28561401367188 183.7997894287109 -95.58811187744141 185.4467926025391 C -94.86539459228516 187.1514129638672 -94.4981689453125 188.963134765625 -94.4981689453125 190.8306274414063 C -94.4981689453125 192.6971893310547 -94.86539459228516 194.5089111328125 -95.58811187744141 196.2135162353516 C -96.28561401367188 197.8605194091797 -97.28639221191406 199.3391876220703 -98.55900573730469 200.6100158691406 C -99.83250427246094 201.8799133300781 -101.3147811889648 202.8761901855469 -102.9653930664063 203.5736846923828 C -104.6744995117188 204.2946319580078 -106.4897766113281 204.6600189208984 -108.3617782592773 204.6600189208984 C -104.5403900146484 204.6600189208984 -100.8188934326172 205.2729034423828 -97.29722595214844 206.4797973632813 C -93.89522552490234 207.646240234375 -90.79289245605469 209.3265228271484 -88.07578277587891 211.4739074707031 C -82.55339050292969 215.8389129638672 -79.10189056396484 221.7825164794922 -78.35761260986328 228.2076263427734 L -78.41249847412109 228.2660675048828 L -78.41249847412109 228.0977935791016 L -138.3111114501953 228.0977935791016 L -138.3111114501953 228.2670135498047 L -138.3111114501953 228.2679138183594 Z" stroke="none" fill="#fff"/>
    </g>
  </g>
</svg>
