<svg xmlns="http://www.w3.org/2000/svg" xmlns:xlink="http://www.w3.org/1999/xlink" width="465" height="308" viewBox="0 0 465 308">
  <defs>
    <clipPath id="clip-Artboard_1">
      <rect width="465" height="308"/>
    </clipPath>
  </defs>
  <g id="Artboard_1" data-name="Artboard – 1" clip-path="url(#clip-Artboard_1)">
    <g id="Union_2" data-name="Union 2" transform="translate(0 5)" fill="#fff">
      <path d="M 434.999755859375 297.4997253417969 L 29.99968147277832 297.4997253417969 C 26.28621101379395 297.4997253417969 22.68515205383301 296.7729797363281 19.29650497436523 295.3396606445313 C 16.02215194702148 293.9547424316406 13.08097648620605 291.9714965820313 10.5546236038208 289.4451293945313 C 8.02826976776123 286.9187927246094 6.045034885406494 283.9776000976563 4.660093784332275 280.7032470703125 C 3.226799726486206 277.3145446777344 2.500035047531128 273.7135009765625 2.500035047531128 270.0000305175781 L 2.500035047531128 224.486083984375 C 2.500035047531128 220.3506164550781 5.864446640014648 216.9862060546875 9.999917030334473 216.9862060546875 L 454.99951171875 216.9862060546875 C 459.1349792480469 216.9862060546875 462.4994506835938 220.3506164550781 462.4994506835938 224.486083984375 L 462.4994506835938 270.0000305175781 C 462.4994506835938 273.7135620117188 461.7727355957031 277.3146057128906 460.3395080566406 280.7033081054688 C 458.9545593261719 283.9776611328125 456.971435546875 286.9188537597656 454.4452209472656 289.4451904296875 C 451.9188537597656 291.9715576171875 448.9776916503906 293.9547424316406 445.7033386230469 295.3396606445313 C 442.3146362304688 296.7729797363281 438.71337890625 297.4997253417969 434.999755859375 297.4997253417969 Z M 428.5467529296875 199.3690795898438 L 37.85762405395508 199.3690795898438 C 32.91632843017578 199.3690795898438 28.2707405090332 197.4446716308594 24.7765064239502 193.950439453125 C 21.28227043151855 190.4560852050781 19.35791778564453 185.8101348876953 19.35791778564453 180.8684997558594 L 19.35791778564453 163.9907836914063 C 19.35791778564453 159.0491485595703 21.28227043151855 154.4031982421875 24.7765064239502 150.9088439941406 C 28.2707405090332 147.4146118164063 32.91632843017578 145.4902038574219 37.85762405395508 145.4902038574219 L 428.5467529296875 145.4902038574219 C 433.4883422851563 145.4902038574219 438.1340942382813 147.41455078125 441.6281433105469 150.9088439941406 C 445.1222229003906 154.403076171875 447.0464477539063 159.0490264892578 447.0464477539063 163.9907836914063 L 447.0464477539063 180.8684997558594 C 447.0464477539063 185.8102569580078 445.1222229003906 190.4562072753906 441.6281433105469 193.950439453125 C 438.1340942382813 197.4447326660156 433.4883422851563 199.3690795898438 428.5467529296875 199.3690795898438 Z M 455.0003967285156 127.8740234375 L 10.00079917907715 127.8740234375 C 5.864858627319336 127.8740234375 2.500035047531128 124.5095520019531 2.500035047531128 120.3740844726563 L 2.500035047531128 60.66777801513672 L 2.512093782424927 60.38767242431641 C 2.664681911468506 56.84114074707031 4.215093612670898 53.24437713623047 7.120211601257324 49.69731903076172 C 10.1142110824585 46.04184722900391 14.55197620391846 42.41825866699219 20.31038856506348 38.9272575378418 C 26.07809448242188 35.43061065673828 33.19956588745117 32.05149459838867 41.47709274291992 28.88372993469238 C 49.73068237304688 25.72508239746094 59.19468307495117 22.75349426269531 69.60615539550781 20.05149459838867 C 80.04579925537109 17.34220123291016 91.52179718017578 14.8823766708374 103.7152099609375 12.74037647247314 C 116.0408020019531 10.57508277893066 129.2093811035156 8.715494155883789 142.8552093505859 7.213141441345215 C 171.2610321044922 4.085729598999023 201.4220886230469 2.50002384185791 232.5006256103516 2.50002384185791 C 263.5787353515625 2.50002384185791 293.739501953125 4.085729598999023 322.1450805664063 7.213141441345215 C 335.7908630371094 8.715494155883789 348.9593811035156 10.57508277893066 361.2848510742188 12.74037647247314 C 373.478271484375 14.8823766708374 384.9542236328125 17.34220123291016 395.3938598632813 20.05149459838867 C 405.8052673339844 22.75349426269531 415.2692565917969 25.72508239746094 423.5228576660156 28.88372993469238 C 431.8003234863281 32.05149459838867 438.9218139648438 35.43061065673828 444.689453125 38.9272575378418 C 450.4477844238281 42.41825866699219 454.8855590820313 46.04179000854492 457.8794555664063 49.69731903076172 C 460.7845153808594 53.24431610107422 462.3348083496094 56.84108352661133 462.4873352050781 60.38761138916016 L 462.5003356933594 60.68976211547852 L 462.5003356933594 60.98131942749023 L 462.5003356933594 120.3740844726563 C 462.5003356933594 124.5095520019531 459.1358642578125 127.8740234375 455.0003967285156 127.8740234375 Z" stroke="none"/>
      <path d="M 434.9997253417969 294.9997253417969 C 438.376953125 294.9997253417969 441.6505126953125 294.3394165039063 444.7294616699219 293.0371704101563 C 447.7057800292969 291.7782287597656 450.3798522949219 289.9749755859375 452.6773376464844 287.6773986816406 C 454.974853515625 285.3798522949219 456.778076171875 282.7057800292969 458.0368957519531 279.7294006347656 C 459.3391418457031 276.6506042480469 459.9993896484375 273.3771667480469 459.9993896484375 270.0000305175781 L 459.9993896484375 224.4860992431641 C 459.9993896484375 221.7291564941406 457.7564697265625 219.4862213134766 454.9995422363281 219.4862213134766 L 9.999902725219727 219.4862213134766 C 7.242965221405029 219.4862213134766 5.000027656555176 221.7291564941406 5.000027656555176 224.4860992431641 L 5.000027656555176 270.0000305175781 C 5.000027656555176 273.3771057128906 5.660340309143066 276.6504821777344 6.962590217590332 279.7293395996094 C 8.221528053283691 282.7057189941406 10.02477741241455 285.3797912597656 12.32234001159668 287.6773376464844 C 14.61990261077881 289.9749755859375 17.29402732849121 291.7782287597656 20.2704029083252 293.0371704101563 C 23.34921455383301 294.3394165039063 26.62265205383301 294.9997253417969 29.99971580505371 294.9997253417969 L 434.9997253417969 294.9997253417969 M 428.5467224121094 196.8690948486328 C 432.8205261230469 196.8690948486328 436.8384094238281 195.2047882080078 439.8602905273438 192.1827239990234 C 442.8821411132813 189.1606597900391 444.5464172363281 185.1425323486328 444.5464172363281 180.8684692382813 L 444.5464172363281 163.9907836914063 C 444.5464172363281 159.7167816162109 442.8821411132813 155.6985931396484 439.8602905273438 152.6765899658203 C 436.8384094238281 149.654541015625 432.8205261230469 147.9902191162109 428.5467224121094 147.9902191162109 L 37.85758972167969 147.9902191162109 C 33.58409118652344 147.9902191162109 29.5662784576416 149.654541015625 26.54434013366699 152.6765899658203 C 23.52221488952637 155.6987915039063 21.85790252685547 159.7169036865234 21.85790252685547 163.9907836914063 L 21.85790252685547 180.8684692382813 C 21.85790252685547 185.1423492431641 23.52221488952637 189.1604766845703 26.54434013366699 192.1826629638672 C 29.56633949279785 195.2047882080078 33.58409118652344 196.8690948486328 37.85758972167969 196.8690948486328 L 428.5467224121094 196.8690948486328 M 455.0003967285156 125.3740386962891 C 457.7574157714844 125.3740386962891 460.0003356933594 123.1310958862305 460.0003356933594 120.3740997314453 L 460.0003356933594 60.98128509521484 L 460.0003356933594 60.74357986450195 L 459.9896545410156 60.49509811401367 C 459.86083984375 57.5007209777832 458.5001525878906 54.40078353881836 455.9453430175781 51.28141021728516 C 453.1316528320313 47.84590911865234 448.9085388183594 44.40866088867188 443.3934020996094 41.06509780883789 C 437.7533874511719 37.64584732055664 430.767333984375 34.33303451538086 422.6292724609375 31.21859741210938 C 414.4622192382813 28.09309768676758 405.0875854492188 25.15009689331055 394.7658386230469 22.47134780883789 C 384.3904724121094 19.77878570556641 372.9802856445313 17.33322334289551 360.8522644042969 15.20265960693359 C 348.5792846679688 13.04665946960449 335.4642028808594 11.19466018676758 321.8714599609375 9.698097229003906 C 293.5563354492188 6.580722332000732 263.4876403808594 5.000034809112549 232.5005950927734 5.000034809112549 C 201.5130920410156 5.000034809112549 171.444091796875 6.580722332000732 143.1287841796875 9.698097229003906 C 129.5359649658203 11.19466018676758 116.4208374023438 13.04665946960449 104.1477813720703 15.20265960693359 C 92.01971435546875 17.33322334289551 80.60952758789063 19.77878570556641 70.23409271240234 22.47134780883789 C 59.91233825683594 25.15009689331055 50.53771591186523 28.09309768676758 42.37059020996094 31.21859741210938 C 34.23252868652344 34.33303451538086 27.2464656829834 37.64584732055664 21.60640335083008 41.06509780883789 C 16.09121513366699 44.40866088867188 11.86808967590332 47.84590911865234 9.054340362548828 51.28141021728516 C 6.499402523040771 54.40084838867188 5.138652801513672 57.50084686279297 5.009777545928955 60.49522399902344 L 5.000027656555176 60.72176742553711 L 5.000027656555176 120.3740997314453 C 5.000027656555176 123.1310958862305 7.243340015411377 125.3740386962891 10.00077724456787 125.3740386962891 L 455.0003967285156 125.3740386962891 M 434.9997253417969 299.9997253417969 L 29.99971580505371 299.9997253417969 C 13.43159008026123 299.9997253417969 2.75878901447868e-05 286.5680847167969 2.75878901447868e-05 270.0000305175781 L 2.75878901447868e-05 224.4860992431641 C 2.75878901447868e-05 218.9627838134766 4.477527618408203 214.4862213134766 9.999902725219727 214.4862213134766 L 454.9995422363281 214.4862213134766 C 460.5227661132813 214.4862213134766 464.9993896484375 218.9627838134766 464.9993896484375 224.4860992431641 L 464.9993896484375 270.0000305175781 C 464.9993896484375 286.5680847167969 451.5687255859375 299.9997253417969 434.9997253417969 299.9997253417969 Z M 428.5467224121094 201.8690948486328 L 37.85758972167969 201.8690948486328 C 26.26021575927734 201.8690948486328 16.85790252685547 192.4667816162109 16.85790252685547 180.8684692382813 L 16.85790252685547 163.9907836914063 C 16.85790252685547 152.3924713134766 26.26021575927734 142.9902191162109 37.85758972167969 142.9902191162109 L 428.5467224121094 142.9902191162109 C 440.14501953125 142.9902191162109 449.5464172363281 152.3924713134766 449.5464172363281 163.9907836914063 L 449.5464172363281 180.8684692382813 C 449.5464172363281 192.4667816162109 440.14501953125 201.8690948486328 428.5467224121094 201.8690948486328 Z M 455.0003967285156 130.3740386962891 L 10.00077724456787 130.3740386962891 C 4.477527618408203 130.3740386962891 2.75878901447868e-05 125.8964691162109 2.75878901447868e-05 120.3740997314453 L 2.75878901447868e-05 60.28022384643555 L 0.01440258789807558 60.28022384643555 C 1.449902534484863 26.92440986633301 104.9867782592773 3.491211100481451e-05 232.5005950927734 3.491211100481451e-05 C 360.0126037597656 3.491211100481451e-05 463.5504150390625 26.92440986633301 464.9850158691406 60.28022384643555 L 465.0003356933594 60.28022384643555 L 465.0003356933594 60.98128509521484 L 465.0003356933594 120.3740997314453 C 465.0003356933594 125.8964691162109 460.5227661132813 130.3740386962891 455.0003967285156 130.3740386962891 Z" stroke="none" fill="#fff"/>
    </g>
    <g id="Ellipse_2" data-name="Ellipse 2" transform="translate(114.494 37.075)" fill="green" stroke="green" stroke-width="5">
      <circle cx="118.006" cy="118.006" r="118.006" stroke="none"/>
      <circle cx="118.006" cy="118.006" r="115.506" fill="none"/>
    </g>
    <g id="Union_3" data-name="Union 3" transform="translate(145.843 91.152)" fill="#fff">
      <path d="M 86.65734100341797 183.650390625 C 78.42161560058594 183.650390625 70.20106506347656 182.7794189453125 62.22409057617188 181.0616149902344 C 54.45829010009766 179.3893127441406 46.84216690063477 176.8978118896484 39.5872917175293 173.6563110351563 C 32.46359252929688 170.4734344482422 25.63046646118164 166.5423126220703 19.27766609191895 161.9721069335938 C 13.29109382629395 157.6653900146484 7.693408012390137 152.7642517089844 2.625429153442383 147.3934020996094 C 4.967228889465332 129.8907318115234 14.51973724365234 113.7244644165039 29.61836624145508 101.7625122070313 C 37.24534225463867 95.72001647949219 45.9581413269043 90.99106597900391 55.51473999023438 87.70706176757813 C 65.42426300048828 84.30176544189453 75.90216827392578 82.57513427734375 86.65734100341797 82.57513427734375 L 86.65734100341797 77.57513427734375 C 81.58863830566406 77.57513427734375 76.67288970947266 76.58303833007813 72.04663848876953 74.62636566162109 C 67.57688903808594 72.73591613769531 63.56214141845703 70.02906036376953 60.1138916015625 66.58096313476563 C 56.66561508178711 63.13283920288086 53.95861434936523 59.11823654174805 52.06809234619141 54.64866256713867 C 50.1113166809082 50.02251434326172 49.119140625 45.10683822631836 49.119140625 40.03818893432617 C 49.119140625 34.96953582763672 50.1113166809082 30.05378723144531 52.06809234619141 25.42751312255859 C 53.95864105224609 20.95781326293945 56.66566467285156 16.94306182861328 60.11394119262695 13.49478721618652 C 63.56221771240234 10.04651260375977 67.57696533203125 7.339512825012207 72.04666900634766 5.448962688446045 C 76.67296600341797 3.492187738418579 81.58869171142578 2.500012636184692 86.65734100341797 2.500012636184692 C 91.72599029541016 2.500012636184692 96.64173889160156 3.492187738418579 101.2680130004883 5.448962688446045 C 105.7377395629883 7.339512825012207 109.7524948120117 10.04651260375977 113.2007675170898 13.49478721618652 C 116.649040222168 16.94306182861328 119.3560638427734 20.95781326293945 121.2466125488281 25.42751312255859 C 123.2033920288086 30.05378723144531 124.1955642700195 34.96953582763672 124.1955642700195 40.03818893432617 C 124.1955642700195 45.10683822631836 123.2033920288086 50.02251434326172 121.2466125488281 54.64866256713867 C 119.3560943603516 59.11823654174805 116.6490936279297 63.13283920288086 113.200813293457 66.58096313476563 C 109.7525634765625 70.02906036376953 105.73779296875 72.73591613769531 101.26806640625 74.62636566162109 C 96.64179229736328 76.58303833007813 91.72604370117188 77.57513427734375 86.65734100341797 77.57513427734375 L 86.65734100341797 82.57513427734375 C 97.41223907470703 82.57513427734375 107.889892578125 84.30168914794922 117.7992401123047 87.70686340332031 C 127.355712890625 90.99076080322266 136.0684356689453 95.71956634521484 143.6953887939453 101.7618865966797 C 158.7940368652344 113.7235641479492 168.3468627929688 129.8895874023438 170.689208984375 147.3921661376953 C 165.6212463378906 152.7630310058594 160.0235290527344 157.6642303466797 154.036865234375 161.9710845947266 C 147.6839447021484 166.5413818359375 140.8506927490234 170.47265625 133.7269134521484 173.6557159423828 C 126.4719161987305 176.8973693847656 118.8557891845703 179.3890075683594 111.0900421142578 181.0614318847656 C 103.1130676269531 182.7793426513672 94.89271545410156 183.650390625 86.65734100341797 183.650390625 Z" stroke="none"/>
      <path d="M 86.65734100341797 181.1503753662109 C 94.71611785888672 181.1503753662109 102.7593994140625 180.2981872558594 110.5637283325195 178.6174621582031 C 118.1601181030273 176.9815216064453 125.6101989746094 174.544189453125 132.70703125 171.3731842041016 C 139.6762237548828 168.2592163085938 146.3614196777344 164.4131011962891 152.5768737792969 159.9416656494141 C 158.1103515625 155.9608612060547 163.3037719726563 151.4615631103516 168.0419311523438 146.545654296875 C 165.5212097167969 130.1420288085938 156.3888549804688 115.0075531005859 142.1429595947266 103.7214660644531 C 134.7385101318359 97.85543823242188 126.2747573852539 93.26280212402344 116.9867858886719 90.07115936279297 C 107.3394775390625 86.75605010986328 97.13517761230469 85.07513427734375 86.65734100341797 85.07513427734375 C 76.17922973632813 85.07513427734375 65.97470092773438 86.756103515625 56.32720184326172 90.07135772705078 C 47.03911972045898 93.26310729980469 38.57528686523438 97.85585784912109 31.17084121704102 103.7220458984375 C 16.92496871948242 115.008430480957 7.792900085449219 130.1431579589844 5.27267599105835 146.5468444824219 C 10.010817527771 151.4627227783203 15.20426464080811 155.9620361328125 20.73761940002441 159.9427185058594 C 26.95295143127441 164.4140167236328 33.63803482055664 168.2599639892578 40.60712051391602 171.3737945556641 C 47.70384216308594 174.5446319580078 55.15392303466797 176.9817962646484 62.75037002563477 178.6176300048828 C 70.55473327636719 180.2982482910156 78.59820556640625 181.1503753662109 86.65734100341797 181.1503753662109 M 86.65734100341797 75.07513427734375 C 91.3896484375 75.07513427734375 95.97776031494141 74.14946746826172 100.2942276000977 72.32382965087891 C 104.465950012207 70.55944061279297 108.2136154174805 68.03246307373047 111.4330902099609 64.81313323974609 C 114.6525650024414 61.59379959106445 117.1796493530273 57.8463249206543 118.9441223144531 53.67474365234375 C 120.7698440551758 49.3584098815918 121.6955642700195 44.77040863037109 121.6955642700195 40.03818893432617 C 121.6955642700195 35.30593872070313 120.7698440551758 30.71785354614258 118.9441223144531 26.40140914916992 C 117.1795883178711 22.22968673706055 114.6525039672852 18.48202133178711 111.4330062866211 15.26254844665527 C 108.213508605957 12.04304885864258 104.4658432006836 9.515965461730957 100.2941207885742 7.751437664031982 C 95.97767639160156 5.925715446472168 91.38958740234375 4.999993324279785 86.65734100341797 4.999993324279785 C 81.92509460449219 4.999993324279785 77.33700561523438 5.925715446472168 73.02056121826172 7.751437664031982 C 68.84883880615234 9.515965461730957 65.10117340087891 12.04304885864258 61.8817024230957 15.26254844665527 C 58.66220092773438 18.48202133178711 56.1351203918457 22.22968673706055 54.37059020996094 26.40140914916992 C 52.54486846923828 30.71785354614258 51.61914825439453 35.30593872070313 51.61914825439453 40.03818893432617 C 51.61914825439453 44.77040863037109 52.54486846923828 49.3584098815918 54.37059020996094 53.67474365234375 C 56.13506317138672 57.8463249206543 58.66214752197266 61.59382629394531 61.88161849975586 64.81313323974609 C 65.10108947753906 68.03246307373047 68.84873199462891 70.55944061279297 73.02045440673828 72.32382965087891 C 77.33692169189453 74.14946746826172 81.92503356933594 75.07513427734375 86.65734100341797 75.07513427734375 M 86.65734100341797 186.1503753662109 C 52.403564453125 186.1503753662109 21.55717468261719 171.5546875 7.670084414712619e-06 148.2451324462891 C 4.423979759216309 109.9593276977539 41.53264617919922 80.07513427734375 86.65734100341797 80.07513427734375 C 131.78076171875 80.07513427734375 168.8894500732422 109.9580764770508 173.3146667480469 148.2438507080078 C 151.7575378417969 171.5534362792969 120.9098968505859 186.1503753662109 86.65734100341797 186.1503753662109 Z M 86.65734100341797 80.07513427734375 C 64.54512023925781 80.07513427734375 46.61914825439453 62.15043640136719 46.61914825439453 40.03818893432617 C 46.61914825439453 17.92596626281738 64.54512023925781 -6.761339136573952e-06 86.65734100341797 -6.761339136573952e-06 C 108.7695617675781 -6.761339136573952e-06 126.6955642700195 17.92596626281738 126.6955642700195 40.03818893432617 C 126.6955642700195 62.15043640136719 108.7695617675781 80.07513427734375 86.65734100341797 80.07513427734375 Z" stroke="none" fill="#fff"/>
    </g>
  </g>
</svg>
