<svg xmlns="http://www.w3.org/2000/svg" xmlns:xlink="http://www.w3.org/1999/xlink" width="400" height="400" viewBox="0 0 400 400">
  <defs>
    <clipPath id="clip-Artboard_6">
      <rect width="400" height="400"/>
    </clipPath>
  </defs>
  <g id="Artboard_6" data-name="Artboard – 6" clip-path="url(#clip-Artboard_6)">
    <path id="Union_33" data-name="Union 33" d="M103.714,297.1a20,20,0,0,1-20-20V198.26a20,20,0,0,1,20-20h191.2a20,20,0,0,1,20,20V277.1a20,20,0,0,1-20,20Zm-58.2-43.76a9.723,9.723,0,0,1,0-13.75L63.088,222.02a9.723,9.723,0,0,1,13.75,13.751l-17.57,17.57a9.724,9.724,0,0,1-13.751,0Zm295.214-1.151-17.57-17.571a9.723,9.723,0,1,1,13.751-13.75l17.57,17.57a9.723,9.723,0,0,1-13.751,13.751Zm-317.1-25.972a9.724,9.724,0,0,1,3.559-13.282l21.52-12.424a9.723,9.723,0,1,1,9.723,16.841L36.914,229.777a9.719,9.719,0,0,1-13.282-3.559Zm339.455,2.407L341.568,216.2a9.723,9.723,0,1,1,9.722-16.842l21.52,12.424a9.723,9.723,0,1,1-9.724,16.841ZM10.615,194.8a9.723,9.723,0,0,1,6.876-11.908l24-6.431a9.723,9.723,0,1,1,5.034,18.784l-24,6.431A9.712,9.712,0,0,1,10.615,194.8Zm366.862,5.724-24-6.43a9.723,9.723,0,1,1,5.035-18.784l24,6.43a9.723,9.723,0,1,1-5.034,18.784Zm-194.368-26.58a9.724,9.724,0,1,1,0-19.447h32.411a9.724,9.724,0,0,1,0,19.447ZM13.5,169.618a9.723,9.723,0,0,1,0-19.446H38.349a9.723,9.723,0,0,1,0,19.446Zm348.152-1.151a9.724,9.724,0,1,1,0-19.447H386.5a9.724,9.724,0,0,1,0,19.447Zm-228.767-18.3a20,20,0,0,1-20-20V81.581a20,20,0,0,1,20-20h65.888V43.209a21.608,21.608,0,0,1-14.738-36.88,21.607,21.607,0,0,1,30.557,30.558,21.466,21.466,0,0,1-15.278,6.329q-.271,0-.541-.007V61.581h0v0h68.05a20,20,0,0,1,20,20v48.59a20,20,0,0,1-20,20Zm24.26-25.517a33.416,33.416,0,0,0,9.994,5.154c8.659,3.029,20.085,4.7,32.174,4.7s23.514-1.669,32.175-4.7a33.393,33.393,0,0,0,9.994-5.154,9.394,9.394,0,0,0,3.643-5.273H153.5A9.4,9.4,0,0,0,157.145,124.654ZM224.7,86.429a10.263,10.263,0,1,0,10.263-10.263A10.275,10.275,0,0,0,224.7,86.429Zm-72.384,0a10.263,10.263,0,1,0,10.263-10.263A10.275,10.275,0,0,0,152.318,86.429Zm30.789-64.822A16.206,16.206,0,1,0,199.313,5.4,16.225,16.225,0,0,0,183.107,21.607ZM13.5,141.529a9.724,9.724,0,0,1,0-19.447H38.349a9.724,9.724,0,0,1,0,19.447Zm348.152-1.152a9.723,9.723,0,1,1,0-19.446H386.5a9.723,9.723,0,0,1,0,19.446ZM13.5,113.439a9.723,9.723,0,0,1,0-19.446H38.349a9.723,9.723,0,0,1,0,19.446Zm348.152-1.151a9.724,9.724,0,1,1,0-19.447H386.5a9.724,9.724,0,0,1,0,19.447ZM15.832,82.93a26.116,26.116,0,0,1-8.241-6.6A33.673,33.673,0,0,1,0,55.1H6.483c.24,12.511,8.961,22.688,19.441,22.688S45.125,67.609,45.365,55.1h6.484a33.672,33.672,0,0,1-7.59,21.233,26.126,26.126,0,0,1-8.241,6.6,22.257,22.257,0,0,1-20.186,0Zm348.15-1.152a26.121,26.121,0,0,1-8.241-6.6,33.677,33.677,0,0,1-7.589-21.233h6.483c.241,12.51,8.961,22.688,19.442,22.688s19.2-10.177,19.442-22.688H400a33.674,33.674,0,0,1-7.592,21.233,26.08,26.08,0,0,1-8.241,6.6,22.257,22.257,0,0,1-20.186,0Z" transform="translate(0 51.45)" fill="#fff"/>
    <line id="Line_3" data-name="Line 3" y2="33.491" transform="translate(199.853 90.883)" fill="none" stroke="#fff" stroke-width="5"/>
  </g>
</svg>
