<svg id="visual" viewBox="0 0 960 200" width="960" height="200" xmlns="http://www.w3.org/2000/svg" xmlns:xlink="http://www.w3.org/1999/xlink" version="1.1"><path d="M0 142L13.3 139.5C26.7 137 53.3 132 80 127.5C106.7 123 133.3 119 160 118.2C186.7 117.3 213.3 119.7 240 117.8C266.7 116 293.3 110 320 110.7C346.7 111.3 373.3 118.7 400 114.8C426.7 111 453.3 96 480 91.8C506.7 87.7 533.3 94.3 560 103.7C586.7 113 613.3 125 640 121.8C666.7 118.7 693.3 100.3 720 91.3C746.7 82.3 773.3 82.7 800 94.3C826.7 106 853.3 129 880 128.3C906.7 127.7 933.3 103.3 946.7 91.2L960 79L960 201L946.7 201C933.3 201 906.7 201 880 201C853.3 201 826.7 201 800 201C773.3 201 746.7 201 720 201C693.3 201 666.7 201 640 201C613.3 201 586.7 201 560 201C533.3 201 506.7 201 480 201C453.3 201 426.7 201 400 201C373.3 201 346.7 201 320 201C293.3 201 266.7 201 240 201C213.3 201 186.7 201 160 201C133.3 201 106.7 201 80 201C53.3 201 26.7 201 13.3 201L0 201Z" fill="#008000" stroke-linecap="round" stroke-linejoin="miter"></path></svg>