<svg id="visual" viewBox="0 0 960 200" width="960" height="200" xmlns="http://www.w3.org/2000/svg" xmlns:xlink="http://www.w3.org/1999/xlink" version="1.1"><path d="M0 91L22.8 85C45.7 79 91.3 67 137 73C182.7 79 228.3 103 274 112.2C319.7 121.3 365.3 115.7 411.2 101.8C457 88 503 66 548.8 62.8C594.7 59.7 640.3 75.3 686 86C731.7 96.7 777.3 102.3 823 96.3C868.7 90.3 914.3 72.7 937.2 63.8L960 55L960 0L937.2 0C914.3 0 868.7 0 823 0C777.3 0 731.7 0 686 0C640.3 0 594.7 0 548.8 0C503 0 457 0 411.2 0C365.3 0 319.7 0 274 0C228.3 0 182.7 0 137 0C91.3 0 45.7 0 22.8 0L0 0Z" fill="#008000" stroke-linecap="round" stroke-linejoin="miter"></path></svg>