<svg id="visual" viewBox="0 0 960 200" width="960" height="200" xmlns="http://www.w3.org/2000/svg" xmlns:xlink="http://www.w3.org/1999/xlink" version="1.1"><path d="M0 137L13.3 131.5C26.7 126 53.3 115 80 110C106.7 105 133.3 106 160 107.2C186.7 108.3 213.3 109.7 240 111.7C266.7 113.7 293.3 116.3 320 113.3C346.7 110.3 373.3 101.7 400 95.2C426.7 88.7 453.3 84.3 480 88.7C506.7 93 533.3 106 560 117.3C586.7 128.7 613.3 138.3 640 136.8C666.7 135.3 693.3 122.7 720 120.7C746.7 118.7 773.3 127.3 800 122.8C826.7 118.3 853.3 100.7 880 101.8C906.7 103 933.3 123 946.7 133L960 143L960 201L946.7 201C933.3 201 906.7 201 880 201C853.3 201 826.7 201 800 201C773.3 201 746.7 201 720 201C693.3 201 666.7 201 640 201C613.3 201 586.7 201 560 201C533.3 201 506.7 201 480 201C453.3 201 426.7 201 400 201C373.3 201 346.7 201 320 201C293.3 201 266.7 201 240 201C213.3 201 186.7 201 160 201C133.3 201 106.7 201 80 201C53.3 201 26.7 201 13.3 201L0 201Z" fill="#008000" stroke-linecap="round" stroke-linejoin="miter"></path></svg>