<svg id="visual" viewBox="0 0 960 360" width="960" height="360" style="background-color: transparent"
  xmlns="http://www.w3.org/2000/svg"
  xmlns:xlink="http://www.w3.org/1999/xlink" version="1.1">
  <path d="M0 118L22.8 109.5C45.7 101 91.3 84 137 91.5C182.7 99 228.3 131 274 139C319.7 147 365.3 131 411.2 123.8C457 116.7 503 118.3 548.8 129.3C594.7 140.3 640.3 160.7 686 171.8C731.7 183 777.3 185 823 169.7C868.7 154.3 914.3 121.7 937.2 105.3L960 89L960 0L937.2 0C914.3 0 868.7 0 823 0C777.3 0 731.7 0 686 0C640.3 0 594.7 0 548.8 0C503 0 457 0 411.2 0C365.3 0 319.7 0 274 0C228.3 0 182.7 0 137 0C91.3 0 45.7 0 22.8 0L0 0Z" fill="#008000" stroke-linecap="round" stroke-linejoin="miter"></path>
</svg>