<svg id="visual" viewBox="0 0 960 200" width="960" height="200" xmlns="http://www.w3.org/2000/svg" xmlns:xlink="http://www.w3.org/1999/xlink" version="1.1"><path d="M0 62L13.3 63.7C26.7 65.3 53.3 68.7 80 77.7C106.7 86.7 133.3 101.3 160 100.3C186.7 99.3 213.3 82.7 240 80.2C266.7 77.7 293.3 89.3 320 92.3C346.7 95.3 373.3 89.7 400 86.3C426.7 83 453.3 82 480 85.7C506.7 89.3 533.3 97.7 560 102.2C586.7 106.7 613.3 107.3 640 101.8C666.7 96.3 693.3 84.7 720 76C746.7 67.3 773.3 61.7 800 62.5C826.7 63.3 853.3 70.7 880 73.3C906.7 76 933.3 74 946.7 73L960 72L960 0L946.7 0C933.3 0 906.7 0 880 0C853.3 0 826.7 0 800 0C773.3 0 746.7 0 720 0C693.3 0 666.7 0 640 0C613.3 0 586.7 0 560 0C533.3 0 506.7 0 480 0C453.3 0 426.7 0 400 0C373.3 0 346.7 0 320 0C293.3 0 266.7 0 240 0C213.3 0 186.7 0 160 0C133.3 0 106.7 0 80 0C53.3 0 26.7 0 13.3 0L0 0Z" fill="#008000" stroke-linecap="round" stroke-linejoin="miter"></path></svg>